<svg width="336" height="207" viewBox="0 0 336 207" fill="none" xmlns="http://www.w3.org/2000/svg">
<path d="M100.133 71.25H232.867V191.916H100.133V71.25Z" fill="#324A59" fill-opacity="0.7"/>
<path d="M100.133 71.25V89.3497H109.184V95.383H121.25V71.25H100.133Z" fill="#324A59" fill-opacity="0.7"/>
<path d="M232.867 89.3497V71.25H211.75V95.383H223.816V89.3497H232.867Z" fill="#324A59" fill-opacity="0.7"/>
<path d="M97.117 203.984H235.883C242.547 203.984 247.949 198.58 247.949 191.916H85.0506C85.0506 198.58 90.4527 203.984 97.117 203.984Z" fill="#C0C8CD"/>
<path d="M232.867 71.25H247.949C247.949 47.9249 229.042 29.0173 205.717 29.0173H127.283C103.958 29.0173 85.0506 47.9249 85.0506 71.25H232.867ZM145.383 56.1662H133.316V44.0997H145.383V56.1662ZM199.684 56.1662H187.617V44.0997H199.684V56.1662Z" fill="#324A59" fill-opacity="0.7"/>
<path d="M121.25 95.383V98.4003C121.25 103.398 125.302 107.449 130.301 107.449H148.4C153.398 107.449 157.449 103.398 157.449 98.4003V71.25H121.25V95.383Z" fill="#324A59" fill-opacity="0.7"/>
<path d="M100.133 89.3497H79.0173V101.416H109.184V89.3497H100.133Z" fill="#C0C8CD"/>
<path d="M175.551 71.25V98.4003C175.551 103.398 179.602 107.451 184.6 107.451H202.699C207.698 107.451 211.75 103.398 211.75 98.4003V71.25H175.551Z" fill="#324A59" fill-opacity="0.7"/>
<path d="M223.816 89.3497V101.416H253.983V89.3497H223.816Z" fill="#C0C8CD"/>
<path d="M112.199 155.717V164.767C112.199 176.429 121.655 185.883 133.316 185.883H139.35C151.013 185.883 160.467 176.429 160.467 164.767V149.683H112.199V155.717Z" fill="#324A59" fill-opacity="0.7"/>
<path d="M103.15 155.717C98.1514 155.717 94.0997 159.768 94.0997 164.767C94.0997 169.765 98.1514 173.816 103.15 173.816H112.199V155.717H103.15Z" fill="#324A59" fill-opacity="0.7"/>
<path d="M172.533 164.767C172.533 176.429 181.987 185.883 193.65 185.883H199.684C211.345 185.883 220.801 176.429 220.801 164.767V149.683H172.533V164.767Z" fill="#324A59" fill-opacity="0.7"/>
<path d="M220.801 173.816H229.85C234.849 173.816 238.9 169.765 238.9 164.767C238.9 159.768 234.849 155.717 229.85 155.717H220.801V173.816Z" fill="#324A59" fill-opacity="0.7"/>
<path d="M133.316 44.0997H145.383V56.1662H133.316V44.0997Z" fill="#324A59" fill-opacity="0.7"/>
<path d="M187.617 44.0997H199.684V56.1662H187.617V44.0997Z" fill="#324A59" fill-opacity="0.7"/>
<path d="M253.983 86.3338H235.883V74.2673H247.949C249.616 74.2673 250.967 72.9154 250.967 71.25C250.939 46.2705 230.696 26.0276 205.717 26H127.283C102.304 26.0276 82.0609 46.2705 82.0332 71.25C82.0332 72.9168 83.3838 74.2673 85.0506 74.2673H97.117V86.3338H79.0173C77.3505 86.3338 76 87.6843 76 89.3497V101.416C76 103.083 77.3505 104.434 79.0173 104.434H97.117V154.377C91.3793 157.65 89.3811 164.955 92.6539 170.694C93.7158 172.554 95.2569 174.095 97.117 175.156V188.9H85.0506C83.3838 188.9 82.0332 190.251 82.0332 191.916C82.0429 200.243 88.7901 206.99 97.117 207H235.883C244.21 206.99 250.957 200.243 250.967 191.916C250.967 190.251 249.616 188.9 247.949 188.9H235.883V175.156C241.622 171.883 243.619 164.578 240.346 158.84C239.284 156.979 237.743 155.438 235.883 154.377V104.434H253.984C255.649 104.434 257 103.083 257 101.416V89.3497C257 87.6843 255.649 86.3338 253.983 86.3338ZM229.85 86.3338H223.816C222.151 86.3338 220.801 87.6843 220.801 89.3497V92.367H214.766V74.2673H229.85V86.3338ZM178.566 74.2673H208.734V98.4003C208.734 101.732 206.032 104.434 202.699 104.434H184.6C181.268 104.434 178.566 101.732 178.566 98.4003V74.2673ZM127.283 32.0332H205.717C226.196 32.0581 243.218 47.8158 244.819 68.2341H88.1811C89.7816 47.8158 106.804 32.0567 127.283 32.0332ZM124.266 74.2673H154.434V98.4003C154.434 101.732 151.732 104.434 148.4 104.434H130.301C126.968 104.434 124.266 101.732 124.266 98.4003V74.2673ZM103.15 74.2673H118.234V92.367H112.199V89.3497C112.199 87.6843 110.849 86.3338 109.184 86.3338H103.15V74.2673ZM82.0332 92.367H106.166V98.4003H82.0332V92.367ZM103.15 158.734H109.184V170.801H103.15C99.8181 170.801 97.117 168.099 97.117 164.767C97.117 161.435 99.8181 158.734 103.15 158.734ZM115.217 152.699H157.449V164.767C157.44 174.76 149.342 182.857 139.35 182.867H133.316C123.324 182.857 115.226 174.76 115.217 164.767V152.699ZM103.15 176.834H112.199C112.278 176.834 112.344 176.794 112.42 176.788C116.719 184.271 124.687 188.889 133.316 188.9H103.15V176.834ZM235.883 200.967H97.117C93.2822 200.963 89.8658 198.546 88.5829 194.934H244.417C243.134 198.546 239.718 200.963 235.883 200.967ZM229.85 188.9H199.684C208.313 188.889 216.281 184.271 220.58 176.788C220.656 176.788 220.722 176.834 220.801 176.834H229.85V188.9ZM217.783 164.767C217.774 174.76 209.676 182.857 199.684 182.867H193.65C183.658 182.857 175.56 174.76 175.551 164.767V152.699H217.783V164.767ZM229.85 170.801H223.816V158.734H229.85C233.182 158.734 235.883 161.435 235.883 164.767C235.883 168.099 233.182 170.801 229.85 170.801ZM229.85 152.699H223.816V149.684C223.816 148.018 222.466 146.666 220.801 146.666H172.533C170.868 146.666 169.517 148.018 169.517 149.684V164.767C169.531 178.089 180.327 188.885 193.65 188.9H139.35C152.673 188.885 163.469 178.089 163.483 164.767V149.684C163.483 148.018 162.132 146.666 160.467 146.666H112.199C110.534 146.666 109.184 148.018 109.184 149.684V152.699H103.15V104.434H109.184C110.849 104.434 112.199 103.083 112.199 101.416V98.4003H118.234C118.234 105.065 123.636 110.467 130.301 110.467H148.4C155.065 110.467 160.467 105.065 160.467 98.4003V74.2673H172.533V98.4003C172.533 105.065 177.935 110.467 184.6 110.467H202.701C209.364 110.467 214.767 105.065 214.767 98.4003H220.801V101.416C220.801 103.083 222.151 104.434 223.816 104.434H229.85V152.699ZM250.967 98.4003H226.834V92.367H250.967V98.4003Z" fill="#231F20"/>
<path d="M133.316 59.1836H145.383C147.05 59.1836 148.4 57.833 148.4 56.1663V44.0998C148.4 42.4344 147.05 41.0839 145.383 41.0839H133.316C131.651 41.0839 130.301 42.4344 130.301 44.0998V56.1663C130.301 57.833 131.651 59.1836 133.316 59.1836ZM136.334 47.1171H142.367V53.1503H136.334V47.1171Z" fill="#231F20"/>
<path d="M187.617 59.1836H199.684C201.349 59.1836 202.699 57.833 202.699 56.1663V44.0998C202.699 42.4344 201.349 41.0839 199.684 41.0839H187.617C185.95 41.0839 184.6 42.4344 184.6 44.0998V56.1663C184.6 57.833 185.95 59.1836 187.617 59.1836ZM190.633 47.1171H196.666V53.1503H190.633V47.1171Z" fill="#231F20"/>
<path d="M134.04 122.533H128.007C128.033 123.131 127.885 123.722 127.582 124.237C126.219 126.959 126.219 130.166 127.582 132.886C128.149 133.956 128.149 135.238 127.582 136.308C126.883 137.641 126.532 139.129 126.56 140.633H132.593C132.567 140.035 132.714 139.44 133.018 138.923C134.383 136.2 134.383 132.994 133.018 130.272C132.451 129.203 132.451 127.924 133.018 126.857C133.717 125.524 134.069 124.037 134.04 122.533Z" fill="#231F20"/>
<path d="M146.108 122.533H140.073C140.1 123.131 139.952 123.722 139.648 124.237C138.285 126.959 138.285 130.166 139.648 132.886C140.216 133.956 140.216 135.238 139.648 136.308C138.949 137.641 138.599 139.129 138.626 140.633H144.659C144.633 140.035 144.781 139.44 145.085 138.923C146.449 136.2 146.449 132.994 145.085 130.272C144.517 129.203 144.517 127.924 145.085 126.857C145.783 125.524 146.136 124.037 146.108 122.533Z" fill="#231F20"/>
<path d="M206.44 122.533H200.407C200.433 123.131 200.286 123.722 199.982 124.237C198.619 126.959 198.619 130.166 199.982 132.886C200.549 133.956 200.549 135.238 199.982 136.308C199.283 137.641 198.931 139.129 198.96 140.633H204.993C204.967 140.035 205.115 139.44 205.418 138.923C206.783 136.2 206.783 132.994 205.418 130.272C204.851 129.203 204.851 127.924 205.418 126.857C206.117 125.524 206.468 124.037 206.44 122.533Z" fill="#231F20"/>
<path d="M194.374 122.533H188.341C188.367 123.131 188.219 123.722 187.915 124.237C186.551 126.959 186.551 130.166 187.915 132.886C188.481 133.956 188.481 135.238 187.915 136.308C187.217 137.641 186.864 139.129 186.892 140.633H192.925C192.899 140.035 193.047 139.44 193.352 138.923C194.716 136.2 194.716 132.994 193.352 130.272C192.784 129.203 192.784 127.924 193.352 126.857C194.051 125.524 194.402 124.037 194.374 122.533Z" fill="#231F20"/>
<circle cx="48.5" cy="8.5" r="8.5" fill="#E4D5C9"/>
<circle cx="320.5" cy="98.5" r="15.5" fill="#8C9DA8"/>
<circle cx="55.5" cy="174.5" r="15.5" fill="#8C9DA8"/>
<circle cx="11" cy="90" r="11" fill="#E4D5C9"/>
<circle cx="274" cy="156" r="8" fill="#E4D5C9"/>
</svg>
