<?xml version="1.0" encoding="UTF-8"?>
<svg xmlns="http://www.w3.org/2000/svg" xmlns:xlink="http://www.w3.org/1999/xlink" width="50pt" height="50pt" viewBox="0 0 50 50" version="1.1">
<g id="surface1">
<path style=" stroke:none;fill-rule:nonzero;fill:rgb(100%,76.078431%,46.666667%);fill-opacity:1;" d="M 35.957031 33.609375 L 29.695312 27.347656 L 40.65625 27.347656 L 46.917969 33.609375 Z M 35.957031 33.609375 "/>
<path style=" stroke:none;fill-rule:nonzero;fill:rgb(99.607843%,91.372549%,36.470588%);fill-opacity:1;" d="M 9.34375 27.347656 L 29.695312 27.347656 L 29.695312 49.265625 L 9.34375 49.265625 Z M 9.34375 27.347656 "/>
<path style=" stroke:none;fill-rule:nonzero;fill:rgb(100%,76.078431%,46.666667%);fill-opacity:1;" d="M 28.132812 28.914062 L 23.433594 33.609375 L 9.34375 33.609375 L 9.34375 35.175781 L 24.21875 35.175781 L 30.480469 28.914062 Z M 28.132812 28.914062 "/>
<path style=" stroke:none;fill-rule:nonzero;fill:rgb(99.607843%,91.372549%,36.470588%);fill-opacity:1;" d="M 29.695312 27.347656 L 40.65625 27.347656 L 40.65625 49.265625 L 29.695312 49.265625 Z M 29.695312 27.347656 "/>
<path style=" stroke:none;fill-rule:nonzero;fill:rgb(100%,76.078431%,46.666667%);fill-opacity:1;" d="M 9.34375 47.699219 L 40.65625 47.699219 L 40.65625 49.265625 L 9.34375 49.265625 Z M 9.34375 47.699219 "/>
<path style=" stroke:none;fill-rule:nonzero;fill:rgb(100%,76.078431%,46.666667%);fill-opacity:1;" d="M 38.308594 27.347656 L 40.65625 27.347656 L 40.65625 49.265625 L 38.308594 49.265625 Z M 38.308594 27.347656 "/>
<path style=" stroke:none;fill-rule:nonzero;fill:rgb(100%,76.078431%,46.666667%);fill-opacity:1;" d="M 9.34375 27.347656 L 3.082031 33.609375 L 23.433594 33.609375 L 29.695312 27.347656 Z M 9.34375 27.347656 "/>
<path style=" stroke:none;fill-rule:nonzero;fill:rgb(100%,76.078431%,46.666667%);fill-opacity:1;" d="M 40.65625 27.347656 L 46.917969 21.085938 L 35.957031 21.085938 L 29.695312 27.347656 Z M 40.65625 27.347656 "/>
<path style=" stroke:none;fill-rule:nonzero;fill:rgb(100%,76.078431%,46.666667%);fill-opacity:1;" d="M 9.34375 27.347656 L 3.082031 21.085938 L 14.042969 21.085938 L 20.304688 27.347656 Z M 9.34375 27.347656 "/>
<path style=" stroke:none;fill-rule:nonzero;fill:rgb(77.647059%,100%,96.470588%);fill-opacity:1;" d="M 27.347656 3.863281 C 23.023438 3.863281 19.519531 7.371094 19.519531 11.691406 C 19.519531 13.167969 19.929688 14.546875 20.636719 15.722656 L 18.738281 20.304688 L 23.320312 18.402344 C 24.496094 19.113281 25.875 19.519531 27.347656 19.519531 C 31.671875 19.519531 35.175781 16.015625 35.175781 11.691406 C 35.175781 7.371094 31.671875 3.863281 27.347656 3.863281 Z M 27.347656 3.863281 "/>
<path style=" stroke:none;fill-rule:nonzero;fill:rgb(54.117647%,84.705882%,96.470588%);fill-opacity:1;" d="M 27.347656 3.863281 C 27.085938 3.863281 26.824219 3.878906 26.566406 3.902344 C 30.519531 4.296875 33.609375 7.632812 33.609375 11.691406 C 33.609375 15.75 30.523438 19.089844 26.566406 19.480469 C 26.824219 19.507812 27.085938 19.519531 27.347656 19.519531 C 31.671875 19.519531 35.175781 16.015625 35.175781 11.691406 C 35.175781 7.371094 31.671875 3.863281 27.347656 3.863281 Z M 27.347656 3.863281 "/>
<path style=" stroke:none;fill-rule:nonzero;fill:rgb(99.607843%,91.372549%,36.470588%);fill-opacity:1;" d="M 17.171875 2.300781 C 17.171875 3.164062 16.472656 3.863281 15.605469 3.863281 C 14.742188 3.863281 14.042969 3.164062 14.042969 2.300781 C 14.042969 1.433594 14.742188 0.734375 15.605469 0.734375 C 16.472656 0.734375 17.171875 1.433594 17.171875 2.300781 Z M 17.171875 2.300781 "/>
<path style=" stroke:none;fill-rule:nonzero;fill:rgb(99.607843%,91.372549%,36.470588%);fill-opacity:1;" d="M 43.785156 14.042969 C 43.785156 14.90625 43.085938 15.605469 42.222656 15.605469 C 41.355469 15.605469 40.65625 14.90625 40.65625 14.042969 C 40.65625 13.175781 41.355469 12.476562 42.222656 12.476562 C 43.085938 12.476562 43.785156 13.175781 43.785156 14.042969 Z M 43.785156 14.042969 "/>
<path style=" stroke:none;fill-rule:nonzero;fill:rgb(94.117647%,32.941176%,45.882353%);fill-opacity:1;" d="M 30.96875 9.832031 L 29.207031 8.074219 L 27.347656 9.929688 L 25.488281 8.074219 L 23.726562 9.832031 L 25.585938 11.691406 L 23.726562 13.550781 L 25.488281 15.3125 L 27.347656 13.453125 L 29.207031 15.3125 L 30.96875 13.550781 L 29.109375 11.691406 Z M 30.96875 9.832031 "/>
<path style=" stroke:none;fill-rule:nonzero;fill:rgb(100%,100%,100%);fill-opacity:1;" d="M 15.605469 44.617188 L 17.171875 44.617188 L 17.171875 46.085938 L 15.605469 46.085938 Z M 15.605469 44.617188 "/>
<path style=" stroke:none;fill-rule:nonzero;fill:rgb(100%,100%,100%);fill-opacity:1;" d="M 18.738281 44.617188 L 20.304688 44.617188 L 20.304688 46.085938 L 18.738281 46.085938 Z M 18.738281 44.617188 "/>
<path style=" stroke:none;fill-rule:nonzero;fill:rgb(100%,100%,100%);fill-opacity:1;" d="M 21.867188 44.617188 L 23.433594 44.617188 L 23.433594 46.085938 L 21.867188 46.085938 Z M 21.867188 44.617188 "/>
<path style=" stroke:none;fill-rule:nonzero;fill:rgb(0%,0%,0%);fill-opacity:1;" d="M 41.695312 27.347656 L 48.6875 20.351562 L 35.65625 20.351562 L 31.132812 24.871094 L 32.171875 25.910156 L 36.261719 21.820312 L 45.144531 21.820312 L 40.351562 26.613281 L 20.605469 26.613281 L 14.34375 20.351562 L 1.3125 20.351562 L 8.308594 27.347656 L 1.3125 34.34375 L 23.738281 34.34375 L 28.960938 29.121094 L 28.960938 48.53125 L 10.078125 48.53125 L 10.078125 35.957031 L 8.609375 35.957031 L 8.609375 50 L 41.390625 50 L 41.390625 34.34375 L 48.6875 34.34375 Z M 13.738281 21.820312 L 18.53125 26.613281 L 9.648438 26.613281 L 4.855469 21.820312 Z M 23.128906 32.875 L 4.855469 32.875 L 9.648438 28.082031 L 27.925781 28.082031 Z M 39.921875 48.53125 L 30.429688 48.53125 L 30.429688 28.082031 L 39.921875 28.082031 Z M 41.390625 29.121094 L 45.144531 32.875 L 41.390625 32.875 Z M 41.390625 29.121094 "/>
<path style=" stroke:none;fill-rule:nonzero;fill:rgb(0%,0%,0%);fill-opacity:1;" d="M 17.378906 21.660156 L 23.265625 19.21875 C 24.515625 19.898438 25.917969 20.253906 27.347656 20.253906 C 32.070312 20.253906 35.910156 16.414062 35.910156 11.691406 C 35.910156 6.972656 32.070312 3.132812 27.347656 3.132812 C 22.628906 3.132812 18.785156 6.972656 18.785156 11.691406 C 18.785156 13.121094 19.144531 14.523438 19.820312 15.773438 Z M 21.265625 15.34375 C 20.605469 14.246094 20.253906 12.980469 20.253906 11.691406 C 20.253906 7.78125 23.4375 4.597656 27.347656 4.597656 C 31.261719 4.597656 34.441406 7.78125 34.441406 11.691406 C 34.441406 15.605469 31.261719 18.785156 27.347656 18.785156 C 26.058594 18.785156 24.796875 18.4375 23.695312 17.777344 L 23.378906 17.585938 L 20.09375 18.945312 L 21.457031 15.660156 Z M 21.265625 15.34375 "/>
<path style=" stroke:none;fill-rule:nonzero;fill:rgb(0%,0%,0%);fill-opacity:1;" d="M 15.605469 4.597656 C 16.875 4.597656 17.90625 3.566406 17.90625 2.300781 C 17.90625 1.03125 16.875 0 15.605469 0 C 14.339844 0 13.308594 1.03125 13.308594 2.300781 C 13.308594 3.566406 14.339844 4.597656 15.605469 4.597656 Z M 15.605469 1.46875 C 16.066406 1.46875 16.4375 1.839844 16.4375 2.300781 C 16.4375 2.757812 16.066406 3.132812 15.605469 3.132812 C 15.148438 3.132812 14.773438 2.757812 14.773438 2.300781 C 14.773438 1.839844 15.148438 1.46875 15.605469 1.46875 Z M 15.605469 1.46875 "/>
<path style=" stroke:none;fill-rule:nonzero;fill:rgb(0%,0%,0%);fill-opacity:1;" d="M 39.921875 14.042969 C 39.921875 15.308594 40.953125 16.339844 42.222656 16.339844 C 43.488281 16.339844 44.519531 15.308594 44.519531 14.042969 C 44.519531 12.773438 43.488281 11.742188 42.222656 11.742188 C 40.953125 11.742188 39.921875 12.773438 39.921875 14.042969 Z M 42.222656 13.210938 C 42.679688 13.210938 43.054688 13.582031 43.054688 14.042969 C 43.054688 14.5 42.679688 14.871094 42.222656 14.871094 C 41.761719 14.871094 41.390625 14.5 41.390625 14.042969 C 41.390625 13.582031 41.761719 13.210938 42.222656 13.210938 Z M 42.222656 13.210938 "/>
<path style=" stroke:none;fill-rule:nonzero;fill:rgb(0%,0%,0%);fill-opacity:1;" d="M 25.488281 16.351562 L 27.347656 14.492188 L 29.207031 16.351562 L 32.007812 13.550781 L 30.148438 11.691406 L 32.007812 9.832031 L 29.207031 7.035156 L 27.347656 8.894531 L 25.488281 7.035156 L 22.691406 9.832031 L 24.550781 11.691406 L 22.691406 13.550781 Z M 24.765625 9.832031 L 25.488281 9.109375 L 27.347656 10.96875 L 29.207031 9.109375 L 29.929688 9.832031 L 28.070312 11.691406 L 29.929688 13.550781 L 29.207031 14.273438 L 27.347656 12.417969 L 25.488281 14.273438 L 24.765625 13.550781 L 26.625 11.691406 Z M 24.765625 9.832031 "/>
<path style=" stroke:none;fill-rule:nonzero;fill:rgb(0%,0%,0%);fill-opacity:1;" d="M 10.175781 11.691406 L 11.644531 11.691406 L 11.644531 10.078125 L 13.257812 10.078125 L 13.257812 8.609375 L 11.644531 8.609375 L 11.644531 6.996094 L 10.175781 6.996094 L 10.175781 8.609375 L 8.5625 8.609375 L 8.5625 10.078125 L 10.175781 10.078125 Z M 10.175781 11.691406 "/>
<path style=" stroke:none;fill-rule:nonzero;fill:rgb(0%,0%,0%);fill-opacity:1;" d="M 38.355469 6.996094 L 39.824219 6.996094 L 39.824219 5.382812 L 41.4375 5.382812 L 41.4375 3.914062 L 39.824219 3.914062 L 39.824219 2.300781 L 38.355469 2.300781 L 38.355469 3.914062 L 36.742188 3.914062 L 36.742188 5.382812 L 38.355469 5.382812 Z M 38.355469 6.996094 "/>
<path style=" stroke:none;fill-rule:nonzero;fill:rgb(0%,0%,0%);fill-opacity:1;" d="M 33.347656 43.523438 L 34.441406 42.425781 L 34.441406 46.136719 L 35.910156 46.136719 L 35.910156 42.425781 L 37.003906 43.523438 L 38.042969 42.484375 L 35.175781 39.617188 L 32.308594 42.484375 Z M 33.347656 43.523438 "/>
</g>
</svg>
