<?xml version="1.0" encoding="UTF-8"?>
<svg xmlns="http://www.w3.org/2000/svg" xmlns:xlink="http://www.w3.org/1999/xlink" width="50pt" height="50pt" viewBox="0 0 50 50" version="1.1">
<g id="surface1">
<path style=" stroke:none;fill-rule:nonzero;fill:rgb(32.54902%,31.764706%,36.862745%);fill-opacity:1;" d="M 46.628906 41.484375 L 3.371094 41.484375 C 1.507812 41.484375 0 39.976562 0 38.113281 L 0 3.757812 C 0 1.898438 1.507812 0.386719 3.371094 0.386719 L 46.628906 0.386719 C 48.492188 0.386719 50 1.898438 50 3.757812 L 50 38.113281 C 50 39.976562 48.492188 41.484375 46.628906 41.484375 Z M 46.628906 41.484375 "/>
<path style=" stroke:none;fill-rule:nonzero;fill:rgb(27.843137%,27.843137%,33.72549%);fill-opacity:1;" d="M 35.585938 33.15625 C 35.144531 33.15625 34.789062 32.796875 34.789062 32.355469 L 34.789062 8.042969 C 34.789062 7.601562 35.144531 7.246094 35.585938 7.246094 C 36.027344 7.246094 36.382812 7.601562 36.382812 8.042969 L 36.382812 32.355469 C 36.382812 32.796875 36.027344 33.15625 35.585938 33.15625 Z M 35.585938 33.15625 "/>
<path style=" stroke:none;fill-rule:nonzero;fill:rgb(43.529412%,29.411765%,93.72549%);fill-opacity:1;" d="M 46.628906 0.386719 L 3.371094 0.386719 C 1.507812 0.386719 0 1.898438 0 3.757812 L 0 8.492188 L 50 8.492188 L 50 3.757812 C 50 1.898438 48.492188 0.386719 46.628906 0.386719 Z M 46.628906 0.386719 "/>
<path style=" stroke:none;fill-rule:nonzero;fill:rgb(27.45098%,15.686275%,69.803922%);fill-opacity:1;" d="M 31.621094 5.296875 L 16.78125 5.296875 C 16.339844 5.296875 15.984375 4.9375 15.984375 4.496094 C 15.984375 4.058594 16.339844 3.699219 16.78125 3.699219 L 31.621094 3.699219 C 32.0625 3.699219 32.417969 4.058594 32.417969 4.496094 C 32.417969 4.9375 32.0625 5.296875 31.621094 5.296875 Z M 31.621094 5.296875 "/>
<path style=" stroke:none;fill-rule:nonzero;fill:rgb(100%,86.27451%,39.215686%);fill-opacity:1;" d="M 5.519531 4.5 C 5.519531 5.085938 5.039062 5.5625 4.453125 5.5625 C 3.863281 5.5625 3.386719 5.085938 3.386719 4.5 C 3.386719 3.910156 3.863281 3.433594 4.453125 3.433594 C 5.039062 3.433594 5.519531 3.910156 5.519531 4.5 Z M 5.519531 4.5 "/>
<path style=" stroke:none;fill-rule:nonzero;fill:rgb(52.54902%,89.803922%,43.137255%);fill-opacity:1;" d="M 9.628906 4.5 C 9.628906 5.085938 9.152344 5.5625 8.5625 5.5625 C 7.972656 5.5625 7.496094 5.085938 7.496094 4.5 C 7.496094 3.910156 7.972656 3.433594 8.5625 3.433594 C 9.152344 3.433594 9.628906 3.910156 9.628906 4.5 Z M 9.628906 4.5 "/>
<path style=" stroke:none;fill-rule:nonzero;fill:rgb(100%,86.27451%,39.215686%);fill-opacity:1;" d="M 13.511719 4.5 C 13.511719 5.085938 13.03125 5.5625 12.445312 5.5625 C 11.855469 5.5625 11.375 5.085938 11.375 4.5 C 11.375 3.910156 11.855469 3.433594 12.445312 3.433594 C 13.03125 3.433594 13.511719 3.910156 13.511719 4.5 Z M 13.511719 4.5 "/>
<path style=" stroke:none;fill-rule:nonzero;fill:rgb(100%,50.196078%,74.117647%);fill-opacity:1;" d="M 46.726562 4.5 C 46.726562 5.085938 46.25 5.5625 45.660156 5.5625 C 45.074219 5.5625 44.59375 5.085938 44.59375 4.5 C 44.59375 3.910156 45.074219 3.433594 45.660156 3.433594 C 46.25 3.433594 46.726562 3.910156 46.726562 4.5 Z M 46.726562 4.5 "/>
<path style=" stroke:none;fill-rule:nonzero;fill:rgb(27.843137%,27.843137%,33.72549%);fill-opacity:1;" d="M 45 30.949219 L 5.25 30.949219 C 3.546875 30.949219 2.167969 32.328125 2.167969 34.03125 L 2.167969 41.261719 C 2.542969 41.40625 2.945312 41.484375 3.371094 41.484375 L 46.628906 41.484375 C 47.148438 41.484375 47.640625 41.367188 48.082031 41.15625 L 48.082031 34.03125 C 48.082031 32.328125 46.703125 30.949219 45 30.949219 Z M 45 30.949219 "/>
<path style=" stroke:none;fill-rule:nonzero;fill:rgb(66.666667%,65.882353%,75.686275%);fill-opacity:1;" d="M 5.660156 12.703125 C 5.660156 13.140625 5.304688 13.5 4.863281 13.5 C 4.421875 13.5 4.066406 13.140625 4.066406 12.703125 C 4.066406 12.261719 4.421875 11.902344 4.863281 11.902344 C 5.304688 11.902344 5.660156 12.261719 5.660156 12.703125 Z M 5.660156 12.703125 "/>
<path style=" stroke:none;fill-rule:nonzero;fill:rgb(0%,66.666667%,94.117647%);fill-opacity:1;" d="M 18.472656 13.5 L 8.027344 13.5 C 7.585938 13.5 7.230469 13.140625 7.230469 12.703125 C 7.230469 12.261719 7.585938 11.902344 8.027344 11.902344 L 18.472656 11.902344 C 18.914062 11.902344 19.269531 12.261719 19.269531 12.703125 C 19.269531 13.140625 18.914062 13.5 18.472656 13.5 Z M 18.472656 13.5 "/>
<path style=" stroke:none;fill-rule:nonzero;fill:rgb(23.529412%,23.137255%,26.666667%);fill-opacity:1;" d="M 46.726562 12.703125 L 38.875 12.703125 C 38.433594 12.703125 38.078125 12.34375 38.078125 11.902344 C 38.078125 11.464844 38.433594 11.105469 38.875 11.105469 L 46.726562 11.105469 C 47.167969 11.105469 47.527344 11.464844 47.527344 11.902344 C 47.527344 12.34375 47.167969 12.703125 46.726562 12.703125 Z M 46.726562 12.703125 "/>
<path style=" stroke:none;fill-rule:nonzero;fill:rgb(23.529412%,23.137255%,26.666667%);fill-opacity:1;" d="M 46.726562 16.132812 L 38.875 16.132812 C 38.433594 16.132812 38.078125 15.773438 38.078125 15.335938 C 38.078125 14.894531 38.433594 14.535156 38.875 14.535156 L 46.726562 14.535156 C 47.167969 14.535156 47.527344 14.894531 47.527344 15.335938 C 47.527344 15.773438 47.167969 16.132812 46.726562 16.132812 Z M 46.726562 16.132812 "/>
<path style=" stroke:none;fill-rule:nonzero;fill:rgb(23.529412%,23.137255%,26.666667%);fill-opacity:1;" d="M 46.726562 19.5625 L 38.875 19.5625 C 38.433594 19.5625 38.078125 19.203125 38.078125 18.765625 C 38.078125 18.324219 38.433594 17.964844 38.875 17.964844 L 46.726562 17.964844 C 47.167969 17.964844 47.527344 18.324219 47.527344 18.765625 C 47.527344 19.203125 47.167969 19.5625 46.726562 19.5625 Z M 46.726562 19.5625 "/>
<path style=" stroke:none;fill-rule:nonzero;fill:rgb(23.529412%,23.137255%,26.666667%);fill-opacity:1;" d="M 46.726562 22.992188 L 38.875 22.992188 C 38.433594 22.992188 38.078125 22.636719 38.078125 22.195312 C 38.078125 21.753906 38.433594 21.398438 38.875 21.398438 L 46.726562 21.398438 C 47.167969 21.398438 47.527344 21.753906 47.527344 22.195312 C 47.527344 22.636719 47.167969 22.992188 46.726562 22.992188 Z M 46.726562 22.992188 "/>
<path style=" stroke:none;fill-rule:nonzero;fill:rgb(23.529412%,23.137255%,26.666667%);fill-opacity:1;" d="M 46.726562 26.421875 L 38.875 26.421875 C 38.433594 26.421875 38.078125 26.066406 38.078125 25.625 C 38.078125 25.183594 38.433594 24.828125 38.875 24.828125 L 46.726562 24.828125 C 47.167969 24.828125 47.527344 25.183594 47.527344 25.625 C 47.527344 26.066406 47.167969 26.421875 46.726562 26.421875 Z M 46.726562 26.421875 "/>
<path style=" stroke:none;fill-rule:nonzero;fill:rgb(23.529412%,23.137255%,26.666667%);fill-opacity:1;" d="M 46.726562 29.855469 L 38.875 29.855469 C 38.433594 29.855469 38.078125 29.496094 38.078125 29.054688 C 38.078125 28.613281 38.433594 28.257812 38.875 28.257812 L 46.726562 28.257812 C 47.167969 28.257812 47.527344 28.613281 47.527344 29.054688 C 47.527344 29.496094 47.167969 29.855469 46.726562 29.855469 Z M 46.726562 29.855469 "/>
<path style=" stroke:none;fill-rule:nonzero;fill:rgb(66.666667%,65.882353%,75.686275%);fill-opacity:1;" d="M 5.660156 16.050781 C 5.660156 16.492188 5.304688 16.847656 4.863281 16.847656 C 4.421875 16.847656 4.066406 16.492188 4.066406 16.050781 C 4.066406 15.609375 4.421875 15.253906 4.863281 15.253906 C 5.304688 15.253906 5.660156 15.609375 5.660156 16.050781 Z M 5.660156 16.050781 "/>
<path style=" stroke:none;fill-rule:nonzero;fill:rgb(0%,66.666667%,94.117647%);fill-opacity:1;" d="M 13.507812 16.847656 L 8.027344 16.847656 C 7.585938 16.847656 7.230469 16.492188 7.230469 16.050781 C 7.230469 15.609375 7.585938 15.253906 8.027344 15.253906 L 13.507812 15.253906 C 13.949219 15.253906 14.308594 15.609375 14.308594 16.050781 C 14.308594 16.492188 13.949219 16.847656 13.507812 16.847656 Z M 13.507812 16.847656 "/>
<path style=" stroke:none;fill-rule:nonzero;fill:rgb(66.666667%,65.882353%,75.686275%);fill-opacity:1;" d="M 5.660156 25.945312 C 5.660156 26.382812 5.304688 26.742188 4.863281 26.742188 C 4.421875 26.742188 4.066406 26.382812 4.066406 25.945312 C 4.066406 25.503906 4.421875 25.148438 4.863281 25.148438 C 5.304688 25.148438 5.660156 25.503906 5.660156 25.945312 Z M 5.660156 25.945312 "/>
<path style=" stroke:none;fill-rule:nonzero;fill:rgb(52.54902%,89.803922%,43.137255%);fill-opacity:1;" d="M 16.28125 26.742188 L 8.027344 26.742188 C 7.585938 26.742188 7.230469 26.382812 7.230469 25.945312 C 7.230469 25.503906 7.585938 25.148438 8.027344 25.148438 L 16.28125 25.148438 C 16.722656 25.148438 17.078125 25.503906 17.078125 25.945312 C 17.078125 26.382812 16.722656 26.742188 16.28125 26.742188 Z M 16.28125 26.742188 "/>
<path style=" stroke:none;fill-rule:nonzero;fill:rgb(66.666667%,65.882353%,75.686275%);fill-opacity:1;" d="M 5.660156 29.214844 C 5.660156 29.65625 5.304688 30.011719 4.863281 30.011719 C 4.421875 30.011719 4.066406 29.65625 4.066406 29.214844 C 4.066406 28.773438 4.421875 28.417969 4.863281 28.417969 C 5.304688 28.417969 5.660156 28.773438 5.660156 29.214844 Z M 5.660156 29.214844 "/>
<path style=" stroke:none;fill-rule:nonzero;fill:rgb(0%,66.666667%,94.117647%);fill-opacity:1;" d="M 16.28125 30.011719 L 8.027344 30.011719 C 7.585938 30.011719 7.230469 29.65625 7.230469 29.214844 C 7.230469 28.773438 7.585938 28.417969 8.027344 28.417969 L 16.28125 28.417969 C 16.722656 28.417969 17.078125 28.773438 17.078125 29.214844 C 17.078125 29.65625 16.722656 30.011719 16.28125 30.011719 Z M 16.28125 30.011719 "/>
<path style=" stroke:none;fill-rule:nonzero;fill:rgb(0%,66.666667%,94.117647%);fill-opacity:1;" d="M 21.839844 26.742188 L 18.925781 26.742188 C 18.484375 26.742188 18.128906 26.382812 18.128906 25.945312 C 18.128906 25.503906 18.484375 25.148438 18.925781 25.148438 L 21.839844 25.148438 C 22.28125 25.148438 22.636719 25.503906 22.636719 25.945312 C 22.636719 26.382812 22.28125 26.742188 21.839844 26.742188 Z M 21.839844 26.742188 "/>
<path style=" stroke:none;fill-rule:nonzero;fill:rgb(100%,86.27451%,39.215686%);fill-opacity:1;" d="M 22.261719 16.847656 L 16.78125 16.847656 C 16.339844 16.847656 15.984375 16.492188 15.984375 16.050781 C 15.984375 15.609375 16.339844 15.253906 16.78125 15.253906 L 22.261719 15.253906 C 22.703125 15.253906 23.0625 15.609375 23.0625 16.050781 C 23.0625 16.492188 22.703125 16.847656 22.261719 16.847656 Z M 22.261719 16.847656 "/>
<path style=" stroke:none;fill-rule:nonzero;fill:rgb(66.666667%,65.882353%,75.686275%);fill-opacity:1;" d="M 5.660156 19.402344 C 5.660156 19.84375 5.304688 20.199219 4.863281 20.199219 C 4.421875 20.199219 4.066406 19.84375 4.066406 19.402344 C 4.066406 18.960938 4.421875 18.605469 4.863281 18.605469 C 5.304688 18.605469 5.660156 18.960938 5.660156 19.402344 Z M 5.660156 19.402344 "/>
<path style=" stroke:none;fill-rule:nonzero;fill:rgb(100%,50.196078%,74.117647%);fill-opacity:1;" d="M 18.925781 20.199219 L 11.355469 20.199219 C 10.914062 20.199219 10.558594 19.84375 10.558594 19.402344 C 10.558594 18.960938 10.914062 18.605469 11.355469 18.605469 L 18.925781 18.605469 C 19.367188 18.605469 19.722656 18.960938 19.722656 19.402344 C 19.722656 19.84375 19.367188 20.199219 18.925781 20.199219 Z M 18.925781 20.199219 "/>
<path style=" stroke:none;fill-rule:nonzero;fill:rgb(66.666667%,65.882353%,75.686275%);fill-opacity:1;" d="M 5.660156 22.59375 C 5.660156 23.035156 5.304688 23.390625 4.863281 23.390625 C 4.421875 23.390625 4.066406 23.035156 4.066406 22.59375 C 4.066406 22.152344 4.421875 21.796875 4.863281 21.796875 C 5.304688 21.796875 5.660156 22.152344 5.660156 22.59375 Z M 5.660156 22.59375 "/>
<path style=" stroke:none;fill-rule:nonzero;fill:rgb(100%,86.27451%,39.215686%);fill-opacity:1;" d="M 25.160156 23.390625 L 11.355469 23.390625 C 10.914062 23.390625 10.558594 23.035156 10.558594 22.59375 C 10.558594 22.152344 10.914062 21.796875 11.355469 21.796875 L 25.160156 21.796875 C 25.601562 21.796875 25.960938 22.152344 25.960938 22.59375 C 25.960938 23.035156 25.601562 23.390625 25.160156 23.390625 Z M 25.160156 23.390625 "/>
<path style=" stroke:none;fill-rule:nonzero;fill:rgb(52.54902%,89.803922%,43.137255%);fill-opacity:1;" d="M 29.832031 20.199219 L 22.261719 20.199219 C 21.824219 20.199219 21.464844 19.84375 21.464844 19.402344 C 21.464844 18.960938 21.824219 18.605469 22.261719 18.605469 L 29.832031 18.605469 C 30.273438 18.605469 30.628906 18.960938 30.628906 19.402344 C 30.628906 19.84375 30.273438 20.199219 29.832031 20.199219 Z M 29.832031 20.199219 "/>
<path style=" stroke:none;fill-rule:nonzero;fill:rgb(100%,41.960784%,36.078431%);fill-opacity:1;" d="M 43.019531 49.613281 L 7.226562 49.613281 C 5.695312 49.613281 4.453125 48.367188 4.453125 46.835938 L 4.453125 35.582031 C 4.453125 34.046875 5.695312 32.804688 7.226562 32.804688 L 43.019531 32.804688 C 44.554688 32.804688 45.796875 34.046875 45.796875 35.582031 L 45.796875 46.835938 C 45.796875 48.367188 44.554688 49.613281 43.019531 49.613281 Z M 43.019531 49.613281 "/>
<path style=" stroke:none;fill-rule:nonzero;fill:rgb(100%,32.941176%,31.372549%);fill-opacity:1;" d="M 43.019531 32.804688 L 41.347656 32.804688 C 41.347656 40.105469 35.429688 46.023438 28.128906 46.023438 L 4.453125 46.023438 L 4.453125 46.835938 C 4.453125 48.367188 5.695312 49.613281 7.226562 49.613281 L 43.019531 49.613281 C 44.554688 49.613281 45.796875 48.367188 45.796875 46.835938 L 45.796875 35.582031 C 45.796875 34.046875 44.554688 32.804688 43.019531 32.804688 Z M 43.019531 32.804688 "/>
<path style=" stroke:none;fill-rule:nonzero;fill:rgb(100%,100%,100%);fill-opacity:1;" d="M 10.210938 44.523438 L 10.210938 37.65625 C 10.210938 37.492188 10.285156 37.363281 10.429688 37.273438 C 10.574219 37.183594 10.746094 37.136719 10.949219 37.136719 L 14.796875 37.136719 C 14.964844 37.136719 15.089844 37.210938 15.175781 37.355469 C 15.261719 37.5 15.304688 37.667969 15.304688 37.863281 C 15.304688 38.070312 15.261719 38.25 15.171875 38.394531 C 15.082031 38.539062 14.957031 38.609375 14.796875 38.609375 L 11.898438 38.609375 L 11.898438 40.4375 L 13.523438 40.4375 C 13.679688 40.4375 13.804688 40.503906 13.894531 40.632812 C 13.984375 40.761719 14.03125 40.917969 14.03125 41.097656 C 14.03125 41.261719 13.984375 41.410156 13.898438 41.539062 C 13.8125 41.671875 13.6875 41.734375 13.523438 41.734375 L 11.898438 41.734375 L 11.898438 43.574219 L 14.796875 43.574219 C 14.957031 43.574219 15.082031 43.644531 15.171875 43.789062 C 15.261719 43.933594 15.304688 44.109375 15.304688 44.320312 C 15.304688 44.515625 15.261719 44.683594 15.175781 44.828125 C 15.089844 44.972656 14.964844 45.042969 14.796875 45.042969 L 10.949219 45.042969 C 10.746094 45.042969 10.574219 45 10.429688 44.910156 C 10.285156 44.820312 10.210938 44.691406 10.210938 44.523438 Z M 10.210938 44.523438 "/>
<path style=" stroke:none;fill-rule:nonzero;fill:rgb(100%,100%,100%);fill-opacity:1;" d="M 16.039062 44.523438 L 16.039062 37.648438 C 16.039062 37.511719 16.089844 37.390625 16.1875 37.289062 C 16.285156 37.1875 16.410156 37.136719 16.558594 37.136719 L 18.796875 37.136719 C 20.570312 37.136719 21.460938 37.910156 21.460938 39.453125 C 21.460938 40.578125 21.023438 41.308594 20.152344 41.648438 L 21.46875 44.039062 C 21.503906 44.089844 21.523438 44.152344 21.523438 44.234375 C 21.523438 44.441406 21.410156 44.640625 21.183594 44.828125 C 20.957031 45.015625 20.714844 45.109375 20.464844 45.109375 C 20.210938 45.109375 20.03125 45.003906 19.921875 44.796875 L 18.441406 41.917969 L 17.726562 41.917969 L 17.726562 44.523438 C 17.726562 44.691406 17.644531 44.820312 17.480469 44.90625 C 17.3125 45 17.113281 45.042969 16.882812 45.042969 C 16.652344 45.042969 16.453125 45 16.289062 44.90625 C 16.125 44.820312 16.039062 44.691406 16.039062 44.523438 Z M 17.726562 40.621094 L 18.796875 40.621094 C 19.117188 40.621094 19.355469 40.542969 19.523438 40.386719 C 19.6875 40.234375 19.773438 39.976562 19.773438 39.613281 C 19.773438 39.253906 19.6875 38.996094 19.523438 38.84375 C 19.355469 38.6875 19.117188 38.609375 18.796875 38.609375 L 17.726562 38.609375 Z M 17.726562 40.621094 "/>
<path style=" stroke:none;fill-rule:nonzero;fill:rgb(100%,100%,100%);fill-opacity:1;" d="M 22.355469 44.523438 L 22.355469 37.648438 C 22.355469 37.511719 22.40625 37.390625 22.503906 37.289062 C 22.601562 37.1875 22.722656 37.136719 22.875 37.136719 L 25.113281 37.136719 C 26.886719 37.136719 27.773438 37.910156 27.773438 39.453125 C 27.773438 40.578125 27.339844 41.308594 26.464844 41.648438 L 27.785156 44.039062 C 27.820312 44.089844 27.839844 44.152344 27.839844 44.234375 C 27.839844 44.441406 27.726562 44.640625 27.5 44.828125 C 27.273438 45.015625 27.03125 45.109375 26.78125 45.109375 C 26.527344 45.109375 26.347656 45.003906 26.238281 44.796875 L 24.757812 41.917969 L 24.042969 41.917969 L 24.042969 44.523438 C 24.042969 44.691406 23.960938 44.820312 23.792969 44.90625 C 23.628906 45 23.429688 45.042969 23.199219 45.042969 C 22.96875 45.042969 22.769531 45 22.605469 44.90625 C 22.441406 44.820312 22.355469 44.691406 22.355469 44.523438 Z M 24.042969 40.621094 L 25.113281 40.621094 C 25.429688 40.621094 25.671875 40.542969 25.839844 40.386719 C 26.003906 40.234375 26.085938 39.976562 26.085938 39.613281 C 26.085938 39.253906 26.003906 38.996094 25.839844 38.84375 C 25.671875 38.6875 25.429688 38.609375 25.113281 38.609375 L 24.042969 38.609375 Z M 24.042969 40.621094 "/>
<path style=" stroke:none;fill-rule:nonzero;fill:rgb(100%,100%,100%);fill-opacity:1;" d="M 28.585938 42.558594 L 28.585938 39.691406 C 28.585938 38.8125 28.828125 38.167969 29.3125 37.753906 C 29.792969 37.34375 30.433594 37.136719 31.234375 37.136719 C 32.042969 37.136719 32.6875 37.34375 33.171875 37.753906 C 33.652344 38.167969 33.894531 38.8125 33.894531 39.691406 L 33.894531 42.558594 C 33.894531 43.4375 33.652344 44.082031 33.171875 44.492188 C 32.6875 44.902344 32.042969 45.109375 31.234375 45.109375 C 30.433594 45.109375 29.792969 44.902344 29.3125 44.492188 C 28.828125 44.082031 28.585938 43.4375 28.585938 42.558594 Z M 30.273438 42.558594 C 30.273438 43.277344 30.59375 43.636719 31.234375 43.636719 C 31.882812 43.636719 32.207031 43.277344 32.207031 42.558594 L 32.207031 39.691406 C 32.207031 38.96875 31.882812 38.609375 31.234375 38.609375 C 30.59375 38.609375 30.273438 38.96875 30.273438 39.691406 Z M 30.273438 42.558594 "/>
<path style=" stroke:none;fill-rule:nonzero;fill:rgb(100%,100%,100%);fill-opacity:1;" d="M 34.976562 44.523438 L 34.976562 37.648438 C 34.976562 37.511719 35.027344 37.390625 35.121094 37.289062 C 35.21875 37.1875 35.34375 37.136719 35.496094 37.136719 L 37.734375 37.136719 C 39.507812 37.136719 40.394531 37.910156 40.394531 39.453125 C 40.394531 40.578125 39.957031 41.308594 39.085938 41.648438 L 40.40625 44.039062 C 40.441406 44.089844 40.460938 44.152344 40.460938 44.234375 C 40.460938 44.441406 40.347656 44.640625 40.121094 44.828125 C 39.890625 45.015625 39.652344 45.109375 39.398438 45.109375 C 39.148438 45.109375 38.96875 45.003906 38.859375 44.796875 L 37.378906 41.917969 L 36.664062 41.917969 L 36.664062 44.523438 C 36.664062 44.691406 36.582031 44.820312 36.414062 44.90625 C 36.25 45 36.050781 45.042969 35.820312 45.042969 C 35.589844 45.042969 35.390625 45 35.226562 44.90625 C 35.058594 44.820312 34.976562 44.691406 34.976562 44.523438 Z M 36.664062 40.621094 L 37.734375 40.621094 C 38.050781 40.621094 38.292969 40.542969 38.460938 40.386719 C 38.625 40.234375 38.707031 39.976562 38.707031 39.613281 C 38.707031 39.253906 38.625 38.996094 38.460938 38.84375 C 38.292969 38.6875 38.050781 38.609375 37.734375 38.609375 L 36.664062 38.609375 Z M 36.664062 40.621094 "/>
</g>
</svg>
