<?xml version="1.0" encoding="UTF-8"?>
<svg xmlns="http://www.w3.org/2000/svg" xmlns:xlink="http://www.w3.org/1999/xlink" width="60pt" height="60pt" viewBox="0 0 60 60" version="1.1">
<g id="surface1">
<path style=" stroke:none;fill-rule:nonzero;fill:rgb(37.647059%,55.686275%,74.901961%);fill-opacity:1;" d="M 52.089844 6.335938 L 30 23.269531 L 55.605469 23.269531 L 55.605469 6.335938 Z M 52.089844 6.335938 "/>
<path style=" stroke:none;fill-rule:nonzero;fill:rgb(37.647059%,70.980392%,83.921569%);fill-opacity:1;" d="M 4.394531 6.335938 L 52.089844 6.335938 L 52.089844 23.269531 L 4.394531 23.269531 Z M 4.394531 6.335938 "/>
<path style=" stroke:none;fill-rule:nonzero;fill:rgb(98.431373%,94.117647%,65.882353%);fill-opacity:1;" d="M 55.605469 19.753906 L 45.058594 37.332031 L 55.605469 54.910156 L 59.121094 54.910156 L 59.121094 19.753906 Z M 55.605469 19.753906 "/>
<path style=" stroke:none;fill-rule:nonzero;fill:rgb(100%,98.431373%,85.882353%);fill-opacity:1;" d="M 0.878906 19.753906 L 55.605469 19.753906 L 55.605469 54.910156 L 0.878906 54.910156 Z M 0.878906 19.753906 "/>
<path style=" stroke:none;fill-rule:nonzero;fill:rgb(37.647059%,70.980392%,83.921569%);fill-opacity:1;" d="M 52.089844 5.457031 L 45.058594 10.765625 L 52.089844 10.765625 C 53.410156 9.753906 54.226562 9.125 54.226562 9.125 C 55.0625 8.484375 55.605469 7.472656 55.605469 6.335938 L 55.605469 5.457031 Z M 52.089844 5.457031 "/>
<path style=" stroke:none;fill-rule:nonzero;fill:rgb(30.196078%,81.568627%,92.156863%);fill-opacity:1;" d="M 4.394531 5.457031 L 4.394531 6.335938 C 4.394531 7.472656 4.9375 8.484375 5.773438 9.125 C 5.773438 9.125 27.863281 26.058594 27.863281 26.058594 C 28.457031 26.515625 29.195312 26.785156 30 26.785156 C 30.804688 26.785156 31.542969 26.515625 32.136719 26.058594 C 32.136719 26.058594 46.546875 15.011719 52.089844 10.765625 L 52.089844 5.457031 Z M 4.394531 5.457031 "/>
<path style=" stroke:none;fill-rule:nonzero;fill:rgb(0%,0%,0%);fill-opacity:1;" d="M 59.121094 18.691406 L 56.484375 18.691406 L 56.484375 5.273438 C 56.484375 4.789062 56.089844 4.394531 55.605469 4.394531 L 4.394531 4.394531 C 3.910156 4.394531 3.515625 4.789062 3.515625 5.273438 L 3.515625 18.691406 L 0.878906 18.691406 C 0.394531 18.691406 0 19.085938 0 19.570312 L 0 40.664062 C 0 41.148438 0.394531 41.542969 0.878906 41.542969 C 1.363281 41.542969 1.757812 41.148438 1.757812 40.664062 L 1.757812 20.449219 L 19.335938 20.449219 L 27.328125 26.574219 C 28.101562 27.167969 29.027344 27.480469 30 27.480469 C 30.972656 27.480469 31.898438 27.167969 32.671875 26.574219 C 32.738281 26.523438 40.664062 20.449219 40.664062 20.449219 L 58.242188 20.449219 L 58.242188 53.847656 L 1.757812 53.847656 L 1.757812 44.179688 C 1.757812 43.695312 1.363281 43.300781 0.878906 43.300781 C 0.394531 43.300781 0 43.695312 0 44.179688 L 0 54.726562 C 0 55.210938 0.394531 55.605469 0.878906 55.605469 L 59.121094 55.605469 C 59.605469 55.605469 60 55.210938 60 54.726562 L 60 19.570312 C 60 19.085938 59.605469 18.691406 59.121094 18.691406 Z M 5.273438 18.691406 L 5.273438 9.660156 C 5.34375 9.722656 5.417969 9.777344 5.488281 9.832031 L 17.042969 18.691406 Z M 31.605469 25.175781 C 31.136719 25.535156 30.585938 25.722656 30 25.722656 C 29.414062 25.722656 28.863281 25.535156 28.398438 25.179688 C 28.179688 25.011719 6.492188 8.386719 6.3125 8.25 C 5.652344 7.742188 5.273438 6.980469 5.273438 6.152344 L 54.726562 6.152344 C 54.726562 6.980469 54.347656 7.742188 53.691406 8.246094 C 53.472656 8.414062 31.847656 24.992188 31.605469 25.175781 Z M 54.726562 9.667969 L 54.726562 18.691406 L 42.957031 18.691406 Z M 54.726562 9.667969 "/>
<path style=" stroke:none;fill-rule:nonzero;fill:rgb(0%,0%,0%);fill-opacity:1;" d="M 23.164062 37.460938 L 23.605469 36.300781 L 26.632812 36.300781 L 27.070312 37.457031 C 27.203125 37.8125 27.539062 38.027344 27.894531 38.027344 C 27.996094 38.027344 28.101562 38.007812 28.203125 37.972656 C 28.65625 37.800781 28.886719 37.292969 28.714844 36.839844 L 26.101562 29.90625 C 26.097656 29.898438 26.09375 29.890625 26.089844 29.882812 C 25.929688 29.492188 25.554688 29.238281 25.128906 29.238281 C 24.707031 29.238281 24.328125 29.492188 24.167969 29.882812 C 24.167969 29.890625 24.164062 29.898438 24.160156 29.902344 L 21.519531 36.835938 C 21.347656 37.289062 21.574219 37.796875 22.03125 37.96875 C 22.484375 38.144531 22.992188 37.914062 23.164062 37.460938 Z M 25.128906 32.304688 L 25.972656 34.542969 L 24.273438 34.542969 Z M 25.128906 32.304688 "/>
<path style=" stroke:none;fill-rule:nonzero;fill:rgb(0%,0%,0%);fill-opacity:1;" d="M 39.128906 29.238281 C 38.640625 29.238281 38.25 29.632812 38.25 30.117188 L 38.25 37.148438 C 38.25 37.632812 38.640625 38.027344 39.128906 38.027344 C 39.613281 38.027344 40.007812 37.632812 40.007812 37.148438 L 40.007812 35.328125 L 42.546875 37.78125 C 42.71875 37.945312 42.9375 38.027344 43.160156 38.027344 C 43.390625 38.027344 43.617188 37.9375 43.792969 37.757812 C 44.128906 37.410156 44.117188 36.851562 43.769531 36.515625 L 40.632812 33.492188 L 43.503906 30.851562 C 43.863281 30.523438 43.886719 29.96875 43.554688 29.609375 C 43.226562 29.253906 42.671875 29.230469 42.316406 29.558594 L 40.007812 31.679688 L 40.007812 30.117188 C 40.007812 29.632812 39.613281 29.238281 39.128906 29.238281 Z M 39.128906 29.238281 "/>
<path style=" stroke:none;fill-rule:nonzero;fill:rgb(0%,0%,0%);fill-opacity:1;" d="M 14.519531 29.238281 C 14.03125 29.238281 13.640625 29.632812 13.640625 30.117188 L 13.640625 37.148438 C 13.640625 37.632812 14.03125 38.027344 14.519531 38.027344 C 15.003906 38.027344 15.398438 37.632812 15.398438 37.148438 L 15.398438 34.390625 L 18.503906 34.390625 L 18.503906 37.148438 C 18.503906 37.632812 18.898438 38.027344 19.382812 38.027344 C 19.867188 38.027344 20.261719 37.632812 20.261719 37.148438 L 20.261719 30.117188 C 20.261719 29.632812 19.867188 29.238281 19.382812 29.238281 C 18.898438 29.238281 18.503906 29.632812 18.503906 30.117188 L 18.503906 32.632812 L 15.398438 32.632812 L 15.398438 30.117188 C 15.398438 29.632812 15.003906 29.238281 14.519531 29.238281 Z M 14.519531 29.238281 "/>
<path style=" stroke:none;fill-rule:nonzero;fill:rgb(0%,0%,0%);fill-opacity:1;" d="M 9.84375 38.027344 C 10.328125 38.027344 10.722656 37.632812 10.722656 37.148438 L 10.722656 30.996094 L 11.792969 30.996094 C 12.277344 30.996094 12.671875 30.601562 12.671875 30.117188 C 12.671875 29.632812 12.277344 29.238281 11.792969 29.238281 L 7.910156 29.238281 C 7.425781 29.238281 7.03125 29.632812 7.03125 30.117188 C 7.03125 30.601562 7.425781 30.996094 7.910156 30.996094 L 8.964844 30.996094 L 8.964844 37.148438 C 8.964844 37.632812 9.359375 38.027344 9.84375 38.027344 Z M 9.84375 38.027344 "/>
<path style=" stroke:none;fill-rule:nonzero;fill:rgb(0%,0%,0%);fill-opacity:1;" d="M 35.699219 29.25 C 35.214844 29.25 34.820312 29.644531 34.820312 30.128906 L 34.820312 34.328125 L 31.574219 29.628906 C 31.359375 29.3125 30.957031 29.175781 30.589844 29.292969 C 30.222656 29.40625 29.972656 29.746094 29.972656 30.128906 L 29.972656 37.148438 C 29.972656 37.632812 30.367188 38.027344 30.851562 38.027344 C 31.339844 38.027344 31.730469 37.632812 31.730469 37.148438 L 31.730469 32.949219 L 34.976562 37.648438 C 35.144531 37.890625 35.417969 38.027344 35.699219 38.027344 C 35.785156 38.027344 35.875 38.015625 35.960938 37.988281 C 36.328125 37.875 36.578125 37.53125 36.578125 37.148438 L 36.578125 30.128906 C 36.578125 29.644531 36.183594 29.25 35.699219 29.25 Z M 35.699219 29.25 "/>
<path style=" stroke:none;fill-rule:nonzero;fill:rgb(0%,0%,0%);fill-opacity:1;" d="M 30.011719 41.144531 L 32.113281 44.363281 L 32.113281 47.695312 C 32.113281 48.179688 32.507812 48.574219 32.992188 48.574219 C 33.476562 48.574219 33.871094 48.179688 33.871094 47.695312 L 33.871094 44.363281 L 35.957031 41.160156 C 36.222656 40.753906 36.105469 40.210938 35.699219 39.945312 C 35.292969 39.679688 34.746094 39.796875 34.484375 40.203125 L 32.992188 42.496094 L 31.480469 40.183594 C 31.214844 39.777344 30.671875 39.664062 30.265625 39.929688 C 29.859375 40.195312 29.746094 40.738281 30.011719 41.144531 Z M 30.011719 41.144531 "/>
<path style=" stroke:none;fill-rule:nonzero;fill:rgb(0%,0%,0%);fill-opacity:1;" d="M 47.203125 39.785156 C 46.71875 39.785156 46.324219 40.179688 46.324219 40.664062 L 46.324219 45.503906 C 46.324219 46.5625 46.832031 47.425781 47.832031 48.066406 C 48.359375 48.402344 48.957031 48.574219 49.601562 48.574219 C 50.164062 48.574219 50.6875 48.453125 51.160156 48.214844 C 52.65625 47.460938 52.96875 46.320312 52.96875 45.496094 L 52.96875 40.664062 C 52.96875 40.179688 52.574219 39.785156 52.089844 39.785156 C 51.605469 39.785156 51.210938 40.179688 51.210938 40.664062 L 51.210938 45.496094 C 51.210938 45.835938 51.117188 46.269531 50.371094 46.644531 C 50.140625 46.761719 49.890625 46.816406 49.605469 46.816406 C 49.292969 46.816406 49.023438 46.738281 48.78125 46.585938 C 48.203125 46.214844 48.082031 45.882812 48.082031 45.503906 L 48.082031 40.664062 C 48.082031 40.179688 47.691406 39.785156 47.203125 39.785156 Z M 47.203125 39.785156 "/>
<path style=" stroke:none;fill-rule:nonzero;fill:rgb(0%,0%,0%);fill-opacity:1;" d="M 36.179688 44.179688 C 36.179688 46.601562 38.152344 48.574219 40.574219 48.574219 C 43 48.574219 44.96875 46.601562 44.96875 44.179688 C 44.96875 41.757812 43 39.785156 40.574219 39.785156 C 38.152344 39.785156 36.179688 41.757812 36.179688 44.179688 Z M 40.574219 41.542969 C 42.03125 41.542969 43.210938 42.726562 43.210938 44.179688 C 43.210938 45.632812 42.03125 46.816406 40.574219 46.816406 C 39.121094 46.816406 37.9375 45.632812 37.9375 44.179688 C 37.9375 42.726562 39.121094 41.542969 40.574219 41.542969 Z M 40.574219 41.542969 "/>
</g>
</svg>
