<svg width="21" height="30" viewBox="0 0 21 30" fill="none" xmlns="http://www.w3.org/2000/svg">
<path d="M17.5474 21.1735C17.2252 21.1389 16.937 21.3722 16.9027 21.6939L16.1415 28.8281H5.63631L4.88543 21.7898C4.85109 21.468 4.56252 21.2347 4.24066 21.2694C3.91887 21.3037 3.6859 21.5924 3.72023 21.9141L4.52701 29.4762C4.55877 29.7741 4.81008 30 5.10961 30H16.6683C16.9678 30 17.2191 29.7741 17.2509 29.4762L18.0679 21.8183C18.1022 21.4965 17.8692 21.2078 17.5474 21.1735Z" fill="#D8D8D8"/>
<path d="M20.2634 4.17715H18.9524L17.9202 1.63951C17.8304 1.41873 17.6158 1.27436 17.3774 1.27436H13.7825L12.7757 0.187734C12.6648 0.0680273 12.5091 0 12.3459 0H9.43189C9.26871 0 9.11297 0.0680273 9.00211 0.187734L7.99535 1.27436H4.40039C4.16203 1.27436 3.94746 1.41873 3.85764 1.63951L2.82539 4.17715H1.51436C1.19074 4.17715 0.928418 4.43947 0.928418 4.76309V7.28104C0.928418 7.60465 1.19074 7.86697 1.51436 7.86697H2.22146L2.95705 14.7616C2.99139 15.0834 3.27996 15.3166 3.60182 15.2821C3.92361 15.2477 4.15658 14.959 4.12225 14.6373L3.3999 7.86697H18.3778L17.653 14.6598C17.6187 14.9816 17.8517 15.2702 18.1734 15.3046C18.1946 15.3069 18.2156 15.308 18.2363 15.308C18.532 15.308 18.7862 15.0848 18.8182 14.7841L19.5562 7.86697H20.2633C20.5869 7.86697 20.8492 7.60465 20.8492 7.28104V4.76309C20.8494 4.43947 20.587 4.17715 20.2634 4.17715ZM4.79455 2.44623H8.25123C8.41441 2.44623 8.57016 2.3782 8.68102 2.2585L9.68777 1.17188H12.09L13.0968 2.2585C13.2077 2.37814 13.3634 2.44623 13.5265 2.44623H16.9832L17.6873 4.17715H4.09049L4.79455 2.44623ZM19.6775 6.6951H2.10029V5.34902H19.6775V6.6951Z" fill="#D8D8D8"/>
<path d="M1.919 12.8271L3.08736 23.7779H18.6904L19.8588 12.8271H1.919ZM10.8889 20.5038C9.69802 20.5038 8.73263 19.5384 8.73263 18.3475C8.73263 17.1567 9.69802 16.1913 10.8889 16.1913C12.0797 16.1913 13.0451 17.1567 13.0451 18.3475C13.0451 19.5384 12.0797 20.5038 10.8889 20.5038Z" fill="#D8D8D8"/>
<path d="M10.8889 21.0897C9.37681 21.0897 8.14669 19.8596 8.14669 18.3475C8.14669 16.8355 9.37681 15.6053 10.8889 15.6053C12.401 15.6053 13.6311 16.8355 13.6311 18.3475C13.6311 19.8596 12.401 21.0897 10.8889 21.0897ZM10.8889 16.7773C10.023 16.7773 9.31856 17.4817 9.31856 18.3476C9.31856 19.2135 10.023 19.9179 10.8889 19.9179C11.7548 19.9179 12.4592 19.2135 12.4592 18.3476C12.4592 17.4817 11.7547 16.7773 10.8889 16.7773Z" fill="#D8D8D8"/>
</svg>
