<svg width="24" height="24" viewBox="0 0 24 24" fill="none" xmlns="http://www.w3.org/2000/svg">
<path d="M17 2H7C4.23858 2 2 4.23858 2 7V17C2 19.7614 4.23858 22 7 22H17C19.7614 22 22 19.7614 22 17V7C22 4.23858 19.7614 2 17 2Z" fill="#001833" fill-opacity="0.1"/>
<path d="M17 2H7C4.23858 2 2 4.23858 2 7V17C2 19.7614 4.23858 22 7 22H17C19.7614 22 22 19.7614 22 17V7C22 4.23858 19.7614 2 17 2Z" stroke="#001833" stroke-width="1.5" stroke-miterlimit="10" stroke-linecap="round"/>
<path d="M8.5 12H15.5" stroke="#001833" stroke-width="1.5" stroke-miterlimit="10" stroke-linecap="round"/>
<path d="M12 15.5V8.5" stroke="#001833" stroke-width="1.5" stroke-miterlimit="10" stroke-linecap="round"/>
</svg>
