<?xml version="1.0" encoding="UTF-8"?>
<svg xmlns="http://www.w3.org/2000/svg" xmlns:xlink="http://www.w3.org/1999/xlink" width="30pt" height="30pt" viewBox="0 0 30 30" version="1.1">
<g id="surface1">
<path style=" stroke:none;fill-rule:nonzero;fill:rgb(0%,0%,0%);fill-opacity:1;" d="M 16.347656 21.328125 C 16.347656 22.621094 17.398438 23.671875 18.691406 23.671875 L 21.445312 23.671875 C 22.738281 23.671875 23.789062 22.621094 23.789062 21.328125 L 23.789062 18.574219 C 23.789062 17.28125 22.738281 16.230469 21.445312 16.230469 L 18.691406 16.230469 C 17.398438 16.230469 16.347656 17.28125 16.347656 18.574219 Z M 18.691406 18.574219 L 21.445312 18.574219 L 21.445312 21.328125 L 18.691406 21.328125 Z M 18.691406 18.574219 "/>
<path style=" stroke:none;fill-rule:nonzero;fill:rgb(0%,0%,0%);fill-opacity:1;" d="M 23.789062 12.304688 C 23.789062 12.953125 23.265625 13.476562 22.617188 13.476562 C 21.96875 13.476562 21.445312 12.953125 21.445312 12.304688 C 21.445312 11.65625 21.96875 11.132812 22.617188 11.132812 C 23.265625 11.132812 23.789062 11.65625 23.789062 12.304688 Z M 23.789062 12.304688 "/>
<path style=" stroke:none;fill-rule:nonzero;fill:rgb(0%,0%,0%);fill-opacity:1;" d="M 18.691406 12.304688 C 18.691406 12.953125 18.167969 13.476562 17.519531 13.476562 C 16.871094 13.476562 16.347656 12.953125 16.347656 12.304688 C 16.347656 11.65625 16.871094 11.132812 17.519531 11.132812 C 18.167969 11.132812 18.691406 11.65625 18.691406 12.304688 Z M 18.691406 12.304688 "/>
<path style=" stroke:none;fill-rule:nonzero;fill:rgb(0%,0%,0%);fill-opacity:1;" d="M 28.828125 20.625 C 29.476562 20.625 30 20.101562 30 19.453125 L 30 7.03125 C 30 4.445312 27.898438 2.34375 25.3125 2.34375 L 23.789062 2.34375 L 23.789062 1.171875 C 23.789062 0.523438 23.265625 0 22.617188 0 C 21.96875 0 21.445312 0.523438 21.445312 1.171875 L 21.445312 2.34375 L 16.113281 2.34375 L 16.113281 1.171875 C 16.113281 0.523438 15.589844 0 14.941406 0 C 14.292969 0 13.769531 0.523438 13.769531 1.171875 L 13.769531 2.34375 L 8.496094 2.34375 L 8.496094 1.171875 C 8.496094 0.523438 7.972656 0 7.324219 0 C 6.675781 0 6.152344 0.523438 6.152344 1.171875 L 6.152344 2.34375 L 4.6875 2.34375 C 2.101562 2.34375 0 4.445312 0 7.03125 L 0 25.3125 C 0 27.898438 2.101562 30 4.6875 30 L 25.3125 30 C 27.898438 30 30 27.898438 30 25.3125 C 30 24.664062 29.476562 24.140625 28.828125 24.140625 C 28.179688 24.140625 27.65625 24.664062 27.65625 25.3125 C 27.65625 26.605469 26.605469 27.65625 25.3125 27.65625 L 4.6875 27.65625 C 3.394531 27.65625 2.34375 26.605469 2.34375 25.3125 L 2.34375 7.03125 C 2.34375 5.738281 3.394531 4.6875 4.6875 4.6875 L 6.152344 4.6875 L 6.152344 5.859375 C 6.152344 6.507812 6.675781 7.03125 7.324219 7.03125 C 7.972656 7.03125 8.496094 6.507812 8.496094 5.859375 L 8.496094 4.6875 L 13.769531 4.6875 L 13.769531 5.859375 C 13.769531 6.507812 14.292969 7.03125 14.941406 7.03125 C 15.589844 7.03125 16.113281 6.507812 16.113281 5.859375 L 16.113281 4.6875 L 21.445312 4.6875 L 21.445312 5.859375 C 21.445312 6.507812 21.96875 7.03125 22.617188 7.03125 C 23.265625 7.03125 23.789062 6.507812 23.789062 5.859375 L 23.789062 4.6875 L 25.3125 4.6875 C 26.605469 4.6875 27.65625 5.738281 27.65625 7.03125 L 27.65625 19.453125 C 27.65625 20.101562 28.179688 20.625 28.828125 20.625 Z M 28.828125 20.625 "/>
<path style=" stroke:none;fill-rule:nonzero;fill:rgb(0%,0%,0%);fill-opacity:1;" d="M 8.496094 22.5 C 8.496094 23.148438 7.972656 23.671875 7.324219 23.671875 C 6.675781 23.671875 6.152344 23.148438 6.152344 22.5 C 6.152344 21.851562 6.675781 21.328125 7.324219 21.328125 C 7.972656 21.328125 8.496094 21.851562 8.496094 22.5 Z M 8.496094 22.5 "/>
<path style=" stroke:none;fill-rule:nonzero;fill:rgb(0%,0%,0%);fill-opacity:1;" d="M 8.496094 12.304688 C 8.496094 12.953125 7.972656 13.476562 7.324219 13.476562 C 6.675781 13.476562 6.152344 12.953125 6.152344 12.304688 C 6.152344 11.65625 6.675781 11.132812 7.324219 11.132812 C 7.972656 11.132812 8.496094 11.65625 8.496094 12.304688 Z M 8.496094 12.304688 "/>
<path style=" stroke:none;fill-rule:nonzero;fill:rgb(0%,0%,0%);fill-opacity:1;" d="M 8.496094 17.402344 C 8.496094 18.050781 7.972656 18.574219 7.324219 18.574219 C 6.675781 18.574219 6.152344 18.050781 6.152344 17.402344 C 6.152344 16.753906 6.675781 16.230469 7.324219 16.230469 C 7.972656 16.230469 8.496094 16.753906 8.496094 17.402344 Z M 8.496094 17.402344 "/>
<path style=" stroke:none;fill-rule:nonzero;fill:rgb(0%,0%,0%);fill-opacity:1;" d="M 13.59375 17.402344 C 13.59375 18.050781 13.070312 18.574219 12.421875 18.574219 C 11.773438 18.574219 11.25 18.050781 11.25 17.402344 C 11.25 16.753906 11.773438 16.230469 12.421875 16.230469 C 13.070312 16.230469 13.59375 16.753906 13.59375 17.402344 Z M 13.59375 17.402344 "/>
<path style=" stroke:none;fill-rule:nonzero;fill:rgb(0%,0%,0%);fill-opacity:1;" d="M 13.59375 12.304688 C 13.59375 12.953125 13.070312 13.476562 12.421875 13.476562 C 11.773438 13.476562 11.25 12.953125 11.25 12.304688 C 11.25 11.65625 11.773438 11.132812 12.421875 11.132812 C 13.070312 11.132812 13.59375 11.65625 13.59375 12.304688 Z M 13.59375 12.304688 "/>
<path style=" stroke:none;fill-rule:nonzero;fill:rgb(0%,0%,0%);fill-opacity:1;" d="M 13.59375 22.5 C 13.59375 23.148438 13.070312 23.671875 12.421875 23.671875 C 11.773438 23.671875 11.25 23.148438 11.25 22.5 C 11.25 21.851562 11.773438 21.328125 12.421875 21.328125 C 13.070312 21.328125 13.59375 21.851562 13.59375 22.5 Z M 13.59375 22.5 "/>
</g>
</svg>
