<svg width="20" height="34" viewBox="0 0 20 34" fill="none" xmlns="http://www.w3.org/2000/svg">
<path d="M9.59994 6.54306H10.0657L10.0987 6.07849L10.4622 0.961027C10.4816 0.68754 10.7187 0.48185 10.9921 0.501294L11.0276 0.00255391L10.9922 0.501297C11.2655 0.52071 11.4713 0.757941 11.4519 1.03135L11.0984 6.00757L11.0604 6.54299H11.5972H12.9492C13.0199 6.54299 13.0897 6.55808 13.1538 6.58715C13.1704 6.5968 13.1821 6.60266 13.1846 6.60388L13.185 6.6041C13.2032 6.61353 13.2232 6.6232 13.2406 6.63146C13.2602 6.64083 13.2763 6.64839 13.2932 6.65632C13.3159 6.66702 13.3401 6.6784 13.3766 6.69586C13.4848 6.74765 13.6331 6.82107 13.81 6.91971C14.1643 7.11736 14.6328 7.41602 15.1147 7.84036C16.0749 8.68579 17.0893 10.0289 17.3668 12.0864L17.4253 12.5196H17.8623H18.9258C19.1997 12.5196 19.4219 12.7417 19.4219 13.0156V17C19.4219 17.274 19.1997 17.4961 18.9258 17.4961H17.8134H17.3717L17.3172 17.9344L15.6518 31.3198C15.4965 32.5625 14.4343 33.5 13.1827 33.5H6.7391C5.48746 33.5 4.42549 32.5626 4.2701 31.3207C4.27009 31.3206 4.27008 31.3205 4.27007 31.3204L2.60464 17.9344L2.55011 17.4961H2.10846H0.996093C0.722126 17.4961 0.5 17.274 0.5 17V13.0156C0.5 12.7417 0.722126 12.5196 0.996093 12.5196H2.05952H2.49659L2.55503 12.0864C2.83361 10.0216 3.84591 8.68071 4.80384 7.83863C5.2848 7.41584 5.75254 7.11876 6.10722 6.92174C6.28425 6.8234 6.43301 6.75003 6.54225 6.69782C6.56028 6.68921 6.59813 6.67131 6.62998 6.65624C6.65381 6.64498 6.67428 6.6353 6.68059 6.63228C6.69848 6.6237 6.71917 6.61366 6.73815 6.6037C6.73838 6.60358 6.73873 6.6034 6.73921 6.60315C6.74291 6.60126 6.75388 6.59562 6.76888 6.58681C6.8329 6.558 6.90232 6.54306 6.97265 6.54306H9.59994ZM7.20779 7.53518H7.02908L6.93246 7.61437C6.913 7.62377 6.88679 7.63644 6.8574 7.65098C6.77485 7.69181 6.65938 7.75109 6.52097 7.83067C6.24475 7.98947 5.87668 8.22937 5.49189 8.5676C4.72049 9.24568 3.87711 10.3244 3.58319 11.9295L3.47514 12.5196H4.07502H9.17541H9.64115L9.67415 12.055L9.95718 8.07061L9.99521 7.53518H9.45843H7.20779ZM6.96623 7.59794C6.96637 7.59786 6.96632 7.59789 6.96603 7.59804L6.96623 7.59794ZM8.6362 21.8318L8.98447 21.7418L9.00996 21.3831L9.24802 18.0315L9.28606 17.4961H8.74928H4.11599H3.54992L3.61981 18.0578L4.11042 22.0008L4.16798 22.4634L4.63347 22.4384C6.34423 22.3463 7.54888 22.1125 8.6362 21.8318ZM14.6673 31.1973L14.6674 31.197L15.8011 22.084L15.875 21.4907L15.2779 21.5231C13.0135 21.6458 11.6375 22.0182 10.2617 22.4105L9.92488 22.5066L9.90007 22.8559L9.45973 29.0547C9.44038 29.3271 9.20433 29.5336 8.92929 29.5143C8.65625 29.4947 8.45067 29.2575 8.47008 28.9844L8.86181 23.4693L8.90961 22.7964L8.25186 22.9464C7.31546 23.16 6.23533 23.338 4.82364 23.4215L4.29113 23.453L4.35699 23.9823L5.25467 31.1976L5.2547 31.1978C5.34808 31.9452 5.98591 32.5078 6.73917 32.5078H13.1828C13.9362 32.5078 14.5738 31.9449 14.6673 31.1973ZM15.5754 20.5155L15.9985 20.4978L16.0508 20.0776L16.302 18.0578L16.3719 17.496H15.8059H10.7465H10.2808L10.2478 17.9606L10.0499 20.7454L10 21.4479L10.6797 21.2634C11.9519 20.918 13.3818 20.607 15.5754 20.5155ZM17.9297 16.5039H18.4297V16.0039V14.0117V13.5117H17.9297H1.99219H1.49219V14.0117V16.0039V16.5039H1.99219H17.9297ZM12.9927 7.61702L12.8929 7.53518H12.7141H11.4556H10.9899L10.9569 7.99975L10.6738 11.9841L10.6358 12.5196H11.1726H15.8468H16.4467L16.3387 11.9295C16.0401 10.2991 15.2057 9.22512 14.4351 8.55393C14.0514 8.21972 13.6839 7.98549 13.4068 7.83004C13.268 7.75218 13.1519 7.69413 13.0691 7.65389C13.0429 7.64114 13.0263 7.63315 13.0124 7.62649C13.0054 7.62315 12.9991 7.62014 12.9927 7.61702Z" stroke="#D8D8D8"/>
</svg>
