<?xml version="1.0" encoding="UTF-8"?>
<svg xmlns="http://www.w3.org/2000/svg" xmlns:xlink="http://www.w3.org/1999/xlink" width="30pt" height="30pt" viewBox="0 0 30 30" version="1.1">
<g id="surface1">
<path style=" stroke:none;fill-rule:nonzero;fill:rgb(99.215686%,18.823529%,9.411765%);fill-opacity:1;" d="M 15 28.25 C 14.792969 28.25 14.585938 28.179688 14.421875 28.035156 L 14.382812 28 C 13.105469 26.882812 11.902344 25.859375 10.742188 24.871094 C 7.628906 22.214844 4.9375 19.921875 3.066406 17.699219 C 0.972656 15.210938 0 12.886719 0 10.390625 C 0 8.097656 0.777344 5.953125 2.1875 4.351562 C 3.667969 2.671875 5.722656 1.75 7.96875 1.75 C 11.128906 1.75 13.132812 3.636719 14.253906 5.21875 C 14.542969 5.632812 14.792969 6.042969 15 6.429688 C 15.207031 6.042969 15.457031 5.632812 15.746094 5.21875 C 16.867188 3.636719 18.871094 1.75 22.03125 1.75 C 24.277344 1.75 26.332031 2.671875 27.8125 4.351562 C 29.222656 5.953125 30 8.097656 30 10.390625 C 30 12.886719 29.027344 15.210938 26.933594 17.699219 C 25.0625 19.921875 22.371094 22.214844 19.257812 24.871094 C 18.097656 25.859375 16.894531 26.882812 15.617188 28 L 15.578125 28.035156 C 15.414062 28.179688 15.207031 28.25 15 28.25 Z M 7.96875 3.507812 C 6.234375 3.507812 4.648438 4.21875 3.507812 5.515625 C 2.378906 6.792969 1.757812 8.527344 1.757812 10.390625 C 1.757812 14.902344 5.785156 18.335938 11.882812 23.53125 C 12.882812 24.386719 13.914062 25.261719 15 26.207031 C 16.085938 25.261719 17.117188 24.386719 18.117188 23.53125 C 24.214844 18.335938 28.242188 14.902344 28.242188 10.390625 C 28.242188 8.527344 27.621094 6.792969 26.492188 5.515625 C 25.351562 4.21875 23.765625 3.507812 22.03125 3.507812 C 19.621094 3.507812 18.0625 4.992188 17.179688 6.234375 C 16.390625 7.351562 15.976562 8.480469 15.835938 8.910156 C 15.71875 9.273438 15.378906 9.519531 15 9.519531 C 14.621094 9.519531 14.28125 9.273438 14.164062 8.910156 C 14.023438 8.480469 13.609375 7.351562 12.820312 6.234375 C 11.9375 4.992188 10.378906 3.507812 7.96875 3.507812 Z M 7.96875 3.507812 "/>
</g>
</svg>
