<?xml version="1.0" encoding="UTF-8"?>
<svg xmlns="http://www.w3.org/2000/svg" xmlns:xlink="http://www.w3.org/1999/xlink" width="30pt" height="30pt" viewBox="0 0 30 30" version="1.1">
<g id="surface1">
<path style=" stroke:none;fill-rule:nonzero;fill:rgb(99.215686%,18.823529%,9.411765%);fill-opacity:1;" d="M 15 28.183594 C 14.792969 28.183594 14.585938 28.113281 14.421875 27.964844 C 13.144531 26.847656 11.925781 25.8125 10.78125 24.835938 C 4.324219 19.332031 0 15.699219 0 10.402344 C 0 5.507812 3.460938 1.816406 7.96875 1.816406 C 11.523438 1.816406 13.804688 4.300781 15 6.535156 C 16.195312 4.300781 18.476562 1.816406 22.03125 1.816406 C 26.539062 1.816406 30 5.507812 30 10.402344 C 30 15.699219 25.675781 19.332031 19.21875 24.835938 C 18.074219 25.8125 16.855469 26.847656 15.578125 27.964844 C 15.414062 28.113281 15.207031 28.183594 15 28.183594 Z M 15 28.183594 "/>
<path style=" stroke:none;fill-rule:nonzero;fill:rgb(90.196078%,11.764706%,7.843137%);fill-opacity:1;" d="M 15.578125 27.964844 C 16.855469 26.847656 18.074219 25.8125 19.21875 24.835938 C 25.675781 19.332031 30 15.699219 30 10.402344 C 30 5.507812 26.539062 1.816406 22.03125 1.816406 C 18.476562 1.816406 16.195312 4.300781 15 6.535156 L 15 28.183594 C 15.207031 28.183594 15.414062 28.113281 15.578125 27.964844 Z M 15.578125 27.964844 "/>
</g>
</svg>
