<svg width="22" height="22" viewBox="0 0 22 22" fill="none" xmlns="http://www.w3.org/2000/svg">
<g clip-path="url(#clip0)">
<path d="M21.8219 10.3888C18.499 5.48805 14.9111 3 11.1482 3C9.65737 3 8.1486 3.39852 6.65778 4.1794C5.48579 4.79872 4.32278 5.655 3.20467 6.72669C1.31421 8.54157 0.200592 10.3511 0.155688 10.4265C-0.0598507 10.7819 -0.0508699 11.2666 0.17814 11.6112C3.49654 16.5173 7.08886 19 10.8518 19C12.3426 19 13.8514 18.6015 15.3422 17.8206C16.5142 17.2013 17.6772 16.345 18.7953 15.2733C20.6858 13.4584 21.7994 11.6489 21.8443 11.5735C22.0599 11.2181 22.0509 10.7334 21.8219 10.3888ZM17.7491 13.7923C16.1864 15.2841 13.7257 17.0613 10.8518 17.0613C7.74895 17.0613 4.72242 15.0202 1.84857 10.9919C2.3021 10.3511 3.13282 9.27937 4.24644 8.21306C5.8091 6.72131 8.26984 4.94413 11.1437 4.94413C14.2466 4.94413 17.2731 6.98519 20.1469 11.0135C19.6934 11.6543 18.8627 12.7314 17.7491 13.7923Z" fill="#001833"/>
<path d="M14.0652 10.6554C13.6258 10.588 13.2111 10.8924 13.1437 11.3318C12.962 12.5169 11.8511 13.3323 10.666 13.1506C9.48095 12.9688 8.6655 11.858 8.84724 10.6729C9.02897 9.48782 10.1398 8.67237 11.3249 8.85411C11.7643 8.92149 12.179 8.61711 12.2464 8.17769C12.3138 7.73828 12.0094 7.32363 11.57 7.25624C9.50161 6.93905 7.56588 8.36396 7.24937 10.4279C6.93287 12.4918 8.35265 14.4313 10.421 14.7484C12.4893 15.0656 14.4251 13.6407 14.7416 11.5768C14.809 11.1374 14.5046 10.7228 14.0652 10.6554Z" fill="#001833"/>
<path d="M22 3L0 19" stroke="#001833" stroke-width="1.5"/>
</g>
<defs>
<clipPath id="clip0">
<rect width="22" height="22" fill="white"/>
</clipPath>
</defs>
</svg>
