<svg width="24" height="24" viewBox="0 0 24 24" fill="none" xmlns="http://www.w3.org/2000/svg">
<path d="M20.0778 10.1342C20.0778 14.8216 15.1973 22 11.9436 22C8.68992 22 3.80939 14.8216 3.80939 10.1342C3.80939 7.97689 4.66638 5.90791 6.19184 4.38245C7.7173 2.85699 9.78627 2 11.9436 2C14.1009 2 16.1699 2.85699 17.6954 4.38245C19.2208 5.90791 20.0778 7.97689 20.0778 10.1342Z" fill="#CC0000" fill-opacity="0.1"/>
<path d="M10.7039 11.8322H13.195" stroke="#CC0000" stroke-width="1.5" stroke-miterlimit="10" stroke-linecap="round"/>
<path d="M20.0684 10.1342C20.0684 14.8216 15.1879 22 11.9342 22C8.68052 22 3.79999 14.8216 3.79999 10.1342C3.79999 7.97689 4.65699 5.90791 6.18245 4.38245C7.70791 2.85699 9.77688 2 11.9342 2C14.0915 2 16.1605 2.85699 17.686 4.38245C19.2114 5.90791 20.0684 7.97689 20.0684 10.1342Z" stroke="#CC0000" stroke-width="1.5" stroke-miterlimit="10" stroke-linecap="round"/>
</svg>
