<svg width="24" height="24" viewBox="0 0 24 24" fill="none" xmlns="http://www.w3.org/2000/svg">
<path d="M2.2444 5.70204L4.65554 10.9045C4.8136 11.2481 4.89544 11.6218 4.89544 12C4.89544 12.3782 4.8136 12.7519 4.65554 13.0955L2.2444 18.2979C2.0154 18.7882 1.94502 19.3377 2.04303 19.8699C2.14104 20.4021 2.40257 20.8905 2.79121 21.267C3.17986 21.6435 3.67626 21.8895 4.21127 21.9706C4.74628 22.0517 5.29327 21.964 5.77606 21.7196L20.553 14.3361C20.987 14.1193 21.3521 13.786 21.6073 13.3733C21.8624 12.9607 21.9975 12.4851 21.9975 12C21.9975 11.5148 21.8624 11.0393 21.6073 10.6267C21.3521 10.2141 20.987 9.88066 20.553 9.6639L5.77606 2.28043C5.29327 2.03603 4.74628 1.94828 4.21127 2.0294C3.67626 2.11052 3.17986 2.35647 2.79121 2.73301C2.40257 3.10954 2.14104 3.59791 2.04303 4.13008C1.94502 4.66226 2.0154 5.21175 2.2444 5.70204V5.70204Z" stroke="#030835" stroke-width="1.5" stroke-miterlimit="10"/>
</svg>
