<?xml version="1.0" encoding="UTF-8"?>
<svg xmlns="http://www.w3.org/2000/svg" xmlns:xlink="http://www.w3.org/1999/xlink" width="30pt" height="30pt" viewBox="0 0 30 30" version="1.1">
<g id="surface1">
<path style=" stroke:none;fill-rule:nonzero;fill:rgb(0%,0%,0%);fill-opacity:1;" d="M 14.773438 15.871094 C 16.542969 15.871094 17.976562 14.4375 17.976562 12.667969 C 17.976562 10.898438 16.542969 9.464844 14.773438 9.464844 C 13.003906 9.464844 11.570312 10.898438 11.570312 12.667969 C 11.570312 14.4375 13.003906 15.867188 14.773438 15.871094 Z M 14.773438 10.710938 C 15.855469 10.710938 16.738281 11.589844 16.738281 12.675781 C 16.738281 13.757812 15.855469 14.636719 14.773438 14.636719 C 13.6875 14.636719 12.808594 13.757812 12.808594 12.675781 C 12.808594 11.589844 13.6875 10.710938 14.773438 10.710938 Z M 14.773438 10.710938 "/>
<path style=" stroke:none;fill-rule:nonzero;fill:rgb(0%,0%,0%);fill-opacity:1;" d="M 14.773438 17.054688 C 13.460938 17.046875 12.203125 17.570312 11.292969 18.511719 C 10.363281 19.457031 9.855469 20.746094 9.855469 22.148438 C 9.855469 22.488281 10.132812 22.765625 10.472656 22.765625 L 19.070312 22.765625 C 19.414062 22.765625 19.691406 22.488281 19.691406 22.148438 C 19.691406 20.746094 19.183594 19.457031 18.253906 18.511719 C 17.339844 17.570312 16.082031 17.046875 14.773438 17.054688 Z M 11.136719 21.527344 C 11.242188 20.71875 11.609375 19.964844 12.175781 19.378906 C 12.863281 18.683594 13.796875 18.292969 14.773438 18.292969 C 15.746094 18.292969 16.683594 18.683594 17.367188 19.378906 C 17.9375 19.964844 18.300781 20.71875 18.410156 21.527344 Z M 11.136719 21.527344 "/>
<path style=" stroke:none;fill-rule:nonzero;fill:rgb(0%,0%,0%);fill-opacity:1;" d="M 22.207031 0.941406 L 7.339844 0.941406 C 5.628906 0.941406 4.242188 2.328125 4.242188 4.039062 L 4.242188 25.96875 C 4.242188 27.679688 5.628906 29.066406 7.339844 29.066406 L 22.207031 29.066406 C 23.917969 29.066406 25.304688 27.679688 25.304688 25.96875 L 25.304688 4.039062 C 25.304688 2.328125 23.917969 0.941406 22.207031 0.941406 Z M 24.066406 25.96875 C 24.0625 26.996094 23.230469 27.824219 22.207031 27.828125 L 7.339844 27.828125 C 6.3125 27.824219 5.484375 26.996094 5.480469 25.96875 L 5.480469 4.039062 C 5.484375 3.015625 6.3125 2.183594 7.339844 2.179688 L 22.207031 2.179688 C 23.230469 2.183594 24.0625 3.015625 24.066406 4.039062 Z M 24.066406 25.96875 "/>
<path style=" stroke:none;fill-rule:nonzero;fill:rgb(0%,0%,0%);fill-opacity:1;" d="M 12.191406 5.097656 L 17.144531 5.097656 C 17.488281 5.097656 17.765625 4.820312 17.765625 4.480469 C 17.765625 4.136719 17.488281 3.859375 17.144531 3.859375 L 12.191406 3.859375 C 11.847656 3.859375 11.570312 4.136719 11.570312 4.480469 C 11.570312 4.820312 11.847656 5.097656 12.191406 5.097656 Z M 12.191406 5.097656 "/>
</g>
</svg>
