<svg width="24" height="24" viewBox="0 0 24 24" fill="none" xmlns="http://www.w3.org/2000/svg">
<path d="M20.0779 10.1342C20.0779 14.8216 15.1973 22 11.9437 22C8.68998 22 3.80945 14.8216 3.80945 10.1342C3.80945 7.97689 4.66644 5.90791 6.1919 4.38245C7.71736 2.85699 9.78634 2 11.9437 2C14.101 2 16.17 2.85699 17.6954 4.38245C19.2209 5.90791 20.0779 7.97689 20.0779 10.1342Z" fill="#CC0000" fill-opacity="0.1"/>
<path d="M10.704 11.8322H13.1951" stroke="#CC0000" stroke-width="1.5" stroke-miterlimit="10" stroke-linecap="round"/>
<path d="M20.0685 10.1342C20.0685 14.8216 15.188 22 11.9343 22C8.68058 22 3.80005 14.8216 3.80005 10.1342C3.80005 7.97689 4.65705 5.90791 6.18251 4.38245C7.70798 2.85699 9.77694 2 11.9343 2C14.0916 2 16.1606 2.85699 17.686 4.38245C19.2115 5.90791 20.0685 7.97689 20.0685 10.1342Z" stroke="#CC0000" stroke-width="1.5" stroke-miterlimit="10" stroke-linecap="round"/>
</svg>
