<?xml version="1.0" encoding="UTF-8"?>
<svg xmlns="http://www.w3.org/2000/svg" xmlns:xlink="http://www.w3.org/1999/xlink" width="30pt" height="30pt" viewBox="0 0 30 30" version="1.1">
<g id="surface1">
<path style=" stroke:none;fill-rule:nonzero;fill:rgb(0%,0%,0%);fill-opacity:1;" d="M 3.5 14.929688 L 3.5 27 C 3.5 28.65625 4.84375 30 6.5 30 L 23.5 30 C 25.15625 30 26.5 28.65625 26.5 27 L 26.5 14.929688 C 27.382812 14.707031 28.003906 13.910156 28 13 C 28 11.894531 27.105469 11 26 11 L 25.460938 11 C 25.210938 9.28125 23.738281 8.003906 22 8 L 21 8 C 20.3125 7.996094 19.753906 7.4375 19.75 6.75 C 19.742188 5.820312 19.164062 4.992188 18.296875 4.667969 C 18.8125 3.214844 18.324219 1.597656 17.085938 0.679688 C 15.851562 -0.238281 14.160156 -0.242188 12.921875 0.671875 C 11.683594 1.585938 11.1875 3.203125 11.699219 4.65625 C 11.40625 4.765625 11.136719 4.9375 10.914062 5.160156 C 10.488281 5.578125 10.246094 6.152344 10.25 6.75 C 10.25 7.082031 10.117188 7.398438 9.882812 7.632812 C 9.648438 7.867188 9.332031 8 9 8 L 8 8 C 6.261719 8 4.785156 9.277344 4.539062 11 L 4 11 C 2.992188 11 2.144531 11.746094 2.015625 12.742188 C 1.890625 13.742188 2.527344 14.679688 3.5 14.929688 Z M 15 1 C 16.378906 1 17.5 2.121094 17.5 3.5 C 17.5 4.878906 16.378906 6 15 6 C 13.621094 6 12.5 4.878906 12.5 3.5 C 12.5 2.121094 13.621094 1 15 1 Z M 6.234375 9.730469 C 6.699219 9.261719 7.335938 8.996094 8 9 L 9 9 C 10.242188 9 11.25 7.992188 11.25 6.75 C 11.253906 6.191406 11.628906 5.699219 12.164062 5.542969 C 12.820312 6.457031 13.875 7 14.996094 7 C 16.121094 7 17.175781 6.460938 17.832031 5.546875 C 18.371094 5.699219 18.75 6.1875 18.75 6.75 C 18.753906 7.992188 19.757812 8.996094 21 9 L 22 9 C 23.1875 9 24.210938 9.835938 24.449219 11 L 5.550781 11 C 5.648438 10.519531 5.886719 10.078125 6.234375 9.730469 Z M 3.292969 12.292969 C 3.480469 12.105469 3.734375 12 4 12 L 26 12 C 26.550781 12 27 12.449219 27 13 C 27 13.550781 26.550781 14 26 14 L 10 14 C 9.722656 14 9.5 14.222656 9.5 14.5 C 9.5 14.777344 9.722656 15 10 15 L 25.5 15 L 25.5 27 C 25.5 28.105469 24.605469 29 23.5 29 L 6.5 29 C 5.394531 29 4.5 28.105469 4.5 27 L 4.5 15 L 7.5 15 C 7.777344 15 8 14.777344 8 14.5 C 8 14.222656 7.777344 14 7.5 14 L 4 14 C 3.597656 14 3.230469 13.757812 3.078125 13.382812 C 2.921875 13.007812 3.007812 12.578125 3.292969 12.292969 Z M 3.292969 12.292969 "/>
<path style=" stroke:none;fill-rule:nonzero;fill:rgb(0%,0%,0%);fill-opacity:1;" d="M 14 4 C 14.277344 4 14.5 3.777344 14.5 3.5 C 14.5 3.222656 14.722656 3 15 3 C 15.277344 3 15.5 2.777344 15.5 2.5 C 15.5 2.222656 15.277344 2 15 2 C 14.171875 2 13.5 2.671875 13.5 3.5 C 13.5 3.632812 13.550781 3.761719 13.644531 3.855469 C 13.738281 3.949219 13.867188 4 14 4 Z M 14 4 "/>
<path style=" stroke:none;fill-rule:nonzero;fill:rgb(0%,0%,0%);fill-opacity:1;" d="M 5.5 17.5 C 5.5 17.777344 5.722656 18 6 18 L 24 18 C 24.277344 18 24.5 17.777344 24.5 17.5 C 24.5 17.222656 24.277344 17 24 17 L 6 17 C 5.722656 17 5.5 17.222656 5.5 17.5 Z M 5.5 17.5 "/>
<path style=" stroke:none;fill-rule:nonzero;fill:rgb(0%,0%,0%);fill-opacity:1;" d="M 24 25.5 L 6 25.5 C 5.722656 25.5 5.5 25.722656 5.5 26 C 5.5 26.277344 5.722656 26.5 6 26.5 L 24 26.5 C 24.277344 26.5 24.5 26.277344 24.5 26 C 24.5 25.722656 24.277344 25.5 24 25.5 Z M 24 25.5 "/>
<path style=" stroke:none;fill-rule:nonzero;fill:rgb(0%,0%,0%);fill-opacity:1;" d="M 10 19 C 9.722656 19 9.5 19.222656 9.5 19.5 L 9.5 23 C 9.5 23.828125 10.171875 24.5 11 24.5 C 11.828125 24.5 12.5 23.828125 12.5 23 L 12.5 19.5 C 12.5 19.222656 12.277344 19 12 19 C 11.722656 19 11.5 19.222656 11.5 19.5 L 11.5 23 C 11.5 23.277344 11.277344 23.5 11 23.5 C 10.722656 23.5 10.5 23.277344 10.5 23 L 10.5 19.5 C 10.5 19.222656 10.277344 19 10 19 Z M 10 19 "/>
<path style=" stroke:none;fill-rule:nonzero;fill:rgb(0%,0%,0%);fill-opacity:1;" d="M 15 20 C 15.277344 20 15.5 20.222656 15.5 20.5 C 15.5 20.777344 15.722656 21 16 21 C 16.277344 21 16.5 20.777344 16.5 20.5 C 16.5 19.671875 15.828125 19 15 19 C 14.171875 19 13.5 19.671875 13.5 20.5 L 13.5 23 C 13.5 23.828125 14.171875 24.5 15 24.5 C 15.828125 24.5 16.5 23.828125 16.5 23 L 16.5 22.5 C 16.777344 22.5 17 22.277344 17 22 C 17 21.722656 16.777344 21.5 16.5 21.5 L 15.5 21.5 C 15.222656 21.5 15 21.722656 15 22 C 15 22.277344 15.222656 22.5 15.5 22.5 L 15.5 23 C 15.5 23.277344 15.277344 23.5 15 23.5 C 14.722656 23.5 14.5 23.277344 14.5 23 L 14.5 20.5 C 14.5 20.222656 14.722656 20 15 20 Z M 15 20 "/>
<path style=" stroke:none;fill-rule:nonzero;fill:rgb(0%,0%,0%);fill-opacity:1;" d="M 20 24.5 C 20.277344 24.5 20.5 24.277344 20.5 24 L 20.5 20.5 C 20.5 19.671875 19.828125 19 19 19 C 18.171875 19 17.5 19.671875 17.5 20.5 L 17.5 24 C 17.5 24.277344 17.722656 24.5 18 24.5 C 18.277344 24.5 18.5 24.277344 18.5 24 L 18.5 22.5 L 19.5 22.5 L 19.5 24 C 19.5 24.277344 19.722656 24.5 20 24.5 Z M 18.5 21.5 L 18.5 20.5 C 18.5 20.222656 18.722656 20 19 20 C 19.277344 20 19.5 20.222656 19.5 20.5 L 19.5 21.5 Z M 18.5 21.5 "/>
<path style=" stroke:none;fill-rule:nonzero;fill:rgb(0%,0%,0%);fill-opacity:1;" d="M 22.75 19 L 22 19 C 21.722656 19 21.5 19.222656 21.5 19.5 L 21.5 24 C 21.5 24.277344 21.722656 24.5 22 24.5 C 22.277344 24.5 22.5 24.277344 22.5 24 L 22.5 22.5 L 22.691406 22.5 L 23.550781 24.222656 C 23.675781 24.46875 23.976562 24.570312 24.222656 24.449219 C 24.46875 24.324219 24.570312 24.023438 24.449219 23.777344 L 23.675781 22.230469 C 24.335938 21.820312 24.648438 21.015625 24.433594 20.265625 C 24.21875 19.515625 23.53125 19 22.75 19 Z M 22.5 20 L 22.75 20 C 23.164062 20 23.5 20.335938 23.5 20.75 C 23.5 21.164062 23.164062 21.5 22.75 21.5 L 22.5 21.5 Z M 22.5 20 "/>
<path style=" stroke:none;fill-rule:nonzero;fill:rgb(0%,0%,0%);fill-opacity:1;" d="M 7 23.5 C 6.722656 23.5 6.5 23.277344 6.5 23 C 6.5 22.722656 6.277344 22.5 6 22.5 C 5.722656 22.5 5.5 22.722656 5.5 23 C 5.5 23.828125 6.171875 24.5 7 24.5 C 7.828125 24.5 8.5 23.828125 8.5 23 L 8.5 22.75 C 8.5 21.921875 7.828125 21.25 7 21.25 C 6.722656 21.25 6.5 21.027344 6.5 20.75 L 6.5 20.5 C 6.5 20.222656 6.722656 20 7 20 C 7.277344 20 7.5 20.222656 7.5 20.5 C 7.5 20.777344 7.722656 21 8 21 C 8.277344 21 8.5 20.777344 8.5 20.5 C 8.5 19.671875 7.828125 19 7 19 C 6.171875 19 5.5 19.671875 5.5 20.5 L 5.5 20.75 C 5.5 21.578125 6.171875 22.25 7 22.25 C 7.277344 22.25 7.5 22.472656 7.5 22.75 L 7.5 23 C 7.5 23.277344 7.277344 23.5 7 23.5 Z M 7 23.5 "/>
<path style=" stroke:none;fill-rule:nonzero;fill:rgb(0%,0%,0%);fill-opacity:1;" d="M 12.773438 7.046875 C 12.640625 7.019531 12.507812 7.042969 12.394531 7.117188 C 12.285156 7.1875 12.207031 7.300781 12.179688 7.429688 C 11.988281 8.296875 11.457031 9.050781 10.699219 9.519531 C 10.476562 9.667969 10.410156 9.96875 10.554688 10.195312 C 10.695312 10.425781 10.992188 10.5 11.226562 10.367188 C 12.210938 9.757812 12.90625 8.773438 13.152344 7.640625 C 13.210938 7.371094 13.039062 7.105469 12.773438 7.046875 Z M 12.773438 7.046875 "/>
</g>
</svg>
